<svg xmlns="http://www.w3.org/2000/svg" viewBox="0 0 671.92 834.11"><defs><style>.cls-1{isolation:isolate;}.cls-2{fill:#f5e5d8;}.cls-3{fill:#eaceb9;}.cls-11,.cls-4,.cls-6{opacity:0.5;}.cls-5,.cls-9{fill:#bae5f5;}.cls-5{opacity:0.3;}.cls-10,.cls-11,.cls-6{fill:none;stroke-miterlimit:10;}.cls-11,.cls-6{stroke:#fff;stroke-linecap:round;}.cls-6{stroke-width:53.87px;}.cls-11,.cls-6,.cls-7{mix-blend-mode:overlay;}.cls-7{opacity:0.8;}.cls-8{fill:#93d3ea;}.cls-8,.cls-9{fill-opacity:0.4;}.cls-10{stroke:#93d3ea;stroke-width:29.54px;}.cls-11{stroke-width:58.19px;}</style></defs><g class="cls-1"><g id="Ebene_2" data-name="Ebene 2"><g id="Assets"><g id="Space_Egg_w_Suit" data-name="Space Egg w Suit"><g id="Egg"><path class="cls-2" d="M319.65,742.52c-83.1,0-145.94-23.58-186.76-70.1-35.2-40.12-53.81-98.09-53.81-167.65,0-89.77,30.94-194,82.76-278.89,24.89-40.77,53.36-74.63,82.33-97.92,30-24.14,59.31-36.38,87-36.38,55.06,0,120.11,49.73,174,133,54.87,84.77,87.62,188.1,87.62,276.41,0,34.15-4.83,65.59-14.34,93.48-10.09,29.56-25.51,55.16-45.84,76.11C486.34,718.33,414.68,742.52,319.65,742.52Z"/><path class="cls-3" d="M331.21,106.36c24,0,51.45,11.4,79.36,33,28.65,22.16,57.1,54.42,82.25,93.29C546.2,315.11,578.07,415.44,578.07,501c0,32.52-4.56,62.36-13.55,88.71-9.38,27.47-23.66,51.22-42.46,70.59-43.43,44.74-111.53,67.43-202.41,67.43-78.67,0-137.77-21.89-175.65-65.07-16.73-19.06-29.48-42.5-37.9-69.67C98,566.77,93.85,537.08,93.85,504.77c0-43.59,7.69-92,22.24-140,14-46.29,34.21-91.66,58.36-131.21,24-39.32,51.32-71.86,79-94.09,26.95-21.67,53.85-33.12,77.78-33.12m0-29.55c-220.52,0-464.56,680.49-11.56,680.49,509.26,0,232.09-680.49,11.56-680.49Z"/><g class="cls-4"><ellipse class="cls-3" cx="346.93" cy="235.75" rx="38.9" ry="61.07" transform="translate(-65.38 158.69) rotate(-23.61)"/><ellipse class="cls-3" cx="420.13" cy="339.08" rx="20.55" ry="34.04" transform="translate(-100.64 196.66) rotate(-23.61)"/><ellipse class="cls-3" cx="440.94" cy="251.6" rx="28.67" ry="47.49" transform="translate(-63.86 197.67) rotate(-23.61)"/></g></g><g id="Soace_Suit" data-name="Soace Suit"><path id="Suit_base" data-name="Suit base" class="cls-5" d="M330.35,14.77c-260.74,0-549.27,804.57-13.67,804.57C918.79,819.34,591.08,14.77,330.35,14.77Z"/><g id="Suit_base-2" data-name="Suit base"><path class="cls-6" d="M93,568.65c21.16,92.68,89,162.12,227.94,162.12"/></g><g id="Shading" class="cls-7"><path id="shadow" class="cls-8" d="M618.58,678.79c-47.33,83.6-141.7,140.55-301.9,140.55C-127.08,819.34-5.11,267,198.06,77.63c-161,229.13-215.86,669.6,180.43,669.6C486.54,747.23,564.65,721.32,618.58,678.79Z"/><path id="shadow-2" data-name="shadow" class="cls-9" d="M556.6,751C729.36,531,489.48,56,289.14,56c-40.7,0-82.1,19.61-120.91,52.71C218,51.26,274.82,14.77,330.34,14.77,544.34,14.77,803.44,556.73,556.6,751Z"/></g><path id="Suit_outline" data-name="Suit outline" class="cls-10" d="M330.35,14.77c-260.74,0-549.27,804.57-13.67,804.57C918.79,819.34,591.08,14.77,330.35,14.77Z"/><g id="reflection"><g id="reflection-2" data-name="reflection"><path class="cls-11" d="M485.64,214.11c-47.61-70-108-118.54-164.32-118.54"/></g><g id="reflection-3" data-name="reflection"><path class="cls-11" d="M549.68,344.07A544.59,544.59,0,0,0,527,287.13"/></g></g></g></g></g></g></g></svg>