<svg xmlns="http://www.w3.org/2000/svg" viewBox="0 0 671.92 834.11"><defs><style>.cls-1{isolation:isolate;}.cls-2,.cls-6{fill:#bae5f5;}.cls-2{opacity:0.3;}.cls-3,.cls-7,.cls-8{fill:none;stroke-miterlimit:10;}.cls-3,.cls-8{stroke:#fff;stroke-linecap:round;opacity:0.5;}.cls-3{stroke-width:53.87px;}.cls-3,.cls-4,.cls-8{mix-blend-mode:overlay;}.cls-4{opacity:0.8;}.cls-5{fill:#93d3ea;}.cls-5,.cls-6{fill-opacity:0.4;}.cls-7{stroke:#93d3ea;stroke-width:29.54px;}.cls-8{stroke-width:58.19px;}</style></defs><g class="cls-1"><g id="Ebene_2" data-name="Ebene 2"><g id="Assets"><g id="Space_Suit" data-name="Space Suit"><path id="Suit_base" data-name="Suit base" class="cls-2" d="M330.35,14.77c-260.74,0-549.27,804.57-13.67,804.57C918.79,819.34,591.08,14.77,330.35,14.77Z"/><g id="Suit_base-2" data-name="Suit base"><path class="cls-3" d="M93,568.65c21.16,92.68,89,162.12,227.94,162.12"/></g><g id="Shading" class="cls-4"><path id="shadow" class="cls-5" d="M618.58,678.79c-47.33,83.6-141.7,140.55-301.9,140.55C-127.08,819.34-5.11,267,198.06,77.63c-161,229.13-215.86,669.6,180.43,669.6C486.54,747.23,564.65,721.32,618.58,678.79Z"/><path id="shadow-2" data-name="shadow" class="cls-6" d="M556.6,751C729.36,531,489.48,56,289.14,56c-40.7,0-82.1,19.61-120.91,52.71C218,51.26,274.82,14.77,330.34,14.77,544.34,14.77,803.44,556.73,556.6,751Z"/></g><path id="Suit_outline" data-name="Suit outline" class="cls-7" d="M330.35,14.77c-260.74,0-549.27,804.57-13.67,804.57C918.79,819.34,591.08,14.77,330.35,14.77Z"/><g id="reflection"><g id="reflection-2" data-name="reflection"><path class="cls-8" d="M485.64,214.11c-47.61-70-108-118.54-164.32-118.54"/></g><g id="reflection-3" data-name="reflection"><path class="cls-8" d="M549.68,344.07A544.59,544.59,0,0,0,527,287.13"/></g></g></g></g></g></g></svg>