<svg xmlns="http://www.w3.org/2000/svg" viewBox="0 0 835.04 523.16"><defs><style>.cls-1{fill:#1f2189;}.cls-2{fill:#3638c7;}.cls-3,.cls-5{opacity:0.8;}.cls-4,.cls-5{fill:#171866;}.cls-6{fill:none;stroke:#3638c7;stroke-linecap:round;stroke-miterlimit:10;stroke-width:17.43px;}</style></defs><g id="Ebene_2" data-name="Ebene 2"><g id="Assets"><g id="long_astroid" data-name="long astroid"><path class="cls-1" d="M833.55,208.08a137.62,137.62,0,0,0-5.47-23.78A144.58,144.58,0,0,0,818,160.52a6.63,6.63,0,0,0-.71-1.37,146.18,146.18,0,0,0-58-58.08,141.36,141.36,0,0,0-30.62-12.43,144.63,144.63,0,0,0-39.24-5.41H669c-.47-2-1-4-1.6-5.94A107.14,107.14,0,0,0,564.48,0H226.21A107.3,107.3,0,0,0,118.9,107.31v8.14a145.64,145.64,0,0,0,26.75,288.81h1.07a118.91,118.91,0,0,0,118.9,118.9h132.7a117.77,117.77,0,0,0,71.16-23.78H570.72a118.31,118.31,0,0,0,94.88-47.44,119.63,119.63,0,0,0,42.81-61.59c-.12.59-.3,1.13-.48,1.72A146.18,146.18,0,0,0,780,342.85a145.3,145.3,0,0,0,55.06-114A141.07,141.07,0,0,0,833.55,208.08Z"/><path class="cls-2" d="M835,228.88a145.21,145.21,0,0,1-55.06,114A145.65,145.65,0,0,0,665.6,107H645.21A107.28,107.28,0,0,0,540.7,23.78H202.43a106.41,106.41,0,0,0-63,20.51A106.85,106.85,0,0,1,226.21,0H564.48A107.28,107.28,0,0,1,669,83.23h20.39A145.67,145.67,0,0,1,835,228.88Z"/><g class="cls-3"><path class="cls-4" d="M493.26,475.6a117.9,117.9,0,0,1-71.16,23.78H289.4a118.91,118.91,0,0,1-118.9-118.9h-1.07a145.57,145.57,0,0,1-114.14-236,145.59,145.59,0,0,0,90.36,259.8h1.07a118.91,118.91,0,0,0,118.9,118.9h132.7a117.86,117.86,0,0,0,71.17-23.78H570.72a118.31,118.31,0,0,0,94.88-47.44,118,118,0,0,1-71.1,23.66Zm-17.54,18.72,1-.86Zm5.86-5.43,1.19-1.2Zm6.68-7.13c-.35.41-.71.8-1.07,1.19C487.55,482.55,487.91,482.17,488.26,481.76Z"/><path class="cls-4" d="M712.21,372.75a115.16,115.16,0,0,1-4.28,19.32A146.18,146.18,0,0,0,780,342.85,144.8,144.8,0,0,1,712.21,372.75Z"/></g><path class="cls-2" d="M732.48,107H434A53.51,53.51,0,0,1,434,0H564.48A107.28,107.28,0,0,1,669,83.23h20.39a144.63,144.63,0,0,1,39.24,5.41A144.22,144.22,0,0,1,732.48,107Z"/><path class="cls-5" d="M570.72,327a47.51,47.51,0,0,1-47.56,47.56H487.49a47.56,47.56,0,0,0,0-95.12h35.67A47.54,47.54,0,0,1,570.72,327Z"/><path class="cls-2" d="M711.91,190.24a41.6,41.6,0,0,1-41.61,41.62H636.12a41.62,41.62,0,1,1,0-83.23H670.3A41.57,41.57,0,0,1,711.91,190.24Z"/><rect class="cls-2" x="273.47" y="321.03" width="135.25" height="83.23" rx="41.61"/><rect class="cls-5" x="321.03" y="184.3" width="124.85" height="71.34" rx="35.67"/><path class="cls-6" d="M410.21,184.3A35.67,35.67,0,0,1,445.88,220h0a35.53,35.53,0,0,1-4.48,17.31"/><rect class="cls-5" x="101.07" y="249.69" width="59.45" height="59.45" rx="29.72"/><path class="cls-6" d="M130.79,249.69a29.73,29.73,0,0,1,29.73,29.73h0"/><path class="cls-2" d="M277.93,148.63a41.62,41.62,0,0,1-41.62,41.61H200.64a41.62,41.62,0,1,0,0-83.23h35.67A41.59,41.59,0,0,1,277.93,148.63Z"/></g></g></g></svg>