<svg xmlns="http://www.w3.org/2000/svg" viewBox="0 0 833.14 835.49"><defs><style>.cls-1{isolation:isolate;}.cls-2{fill:#001f69;}.cls-3{fill:#1d8eda;}.cls-4{fill:#47cb5d;}.cls-5{fill:#fff;}.cls-6{fill:#0e00cc;opacity:0.4;mix-blend-mode:multiply;}.cls-7,.cls-8{fill:#00b8cc;mix-blend-mode:overlay;}.cls-7{opacity:0.2;}.cls-8{opacity:0.6;}</style></defs><g class="cls-1"><g id="Ebene_2" data-name="Ebene 2"><g id="Assets"><g id="Earth"><path class="cls-2" d="M833.11,417.64C836.32,690.81,563.6,896.4,301.94,819-52,718.5-110.32,236.62,210,54.79,483-103.76,836.36,101.5,833.11,417.64Z"/><g id="Earth-2" data-name="Earth"><path class="cls-3" d="M784.78,417.64c3.55,240.73-239.24,423.76-469.63,354.87C55,701.38-40.93,368.73,142.35,170.31,367.56-78.66,784.62,81.63,784.78,417.64Z"/><path class="cls-4" d="M266.45,581.44A70.54,70.54,0,0,1,195.94,652H131.11A367.39,367.39,0,0,1,59,510.93h136.9A70.51,70.51,0,0,1,266.45,581.44Z"/><path class="cls-4" d="M350.87,155.12a73.78,73.78,0,0,1-73.77,73.77H99A370.72,370.72,0,0,1,233.86,96.83c9.87-5.6,20-10.79,30.42-15.47H277.1A73.76,73.76,0,0,1,350.87,155.12Z"/><rect class="cls-4" x="97.05" y="300.49" width="266.6" height="101.97" rx="50.98"/><path class="cls-4" d="M651,133.43H542.89a51,51,0,0,1-51-51A50.41,50.41,0,0,1,498.16,58,367.43,367.43,0,0,1,651,133.43Z"/><path class="cls-4" d="M735.25,602.38q-1.92,3.32-3.91,6.57c-.87,1.41-1.73,2.82-2.62,4.24-1.5,2.43-3.06,4.81-4.62,7.2-1.15,1.76-2.33,3.49-3.52,5.23s-2.54,3.66-3.84,5.49a2.85,2.85,0,0,1-.17.26c-1.22,1.69-2.43,3.38-3.69,5-2.91,4-5.94,7.92-9,11.78-1.26,1.59-2.56,3.17-3.86,4.73-1.45,1.76-2.93,3.52-4.4,5.23a.62.62,0,0,0-.09.11c-1.48,1.69-2.93,3.36-4.43,5s-3.06,3.39-4.6,5.06-3,3.21-4.51,4.79c-3.51,3.65-7.07,7.21-10.72,10.7q-1.65,1.59-3.34,3.17c-1.84,1.71-3.69,3.42-5.57,5.09-1.3,1.18-2.63,2.35-3.95,3.5-1.15,1-2.3,2-3.47,3s-2.41,2.06-3.63,3.06c-1.47,1.24-3,2.45-4.46,3.65l-.57.45c-1.69,1.37-3.43,2.73-5.16,4.06q-2.12,1.65-4.3,3.27l-2.32,1.72c-.74.54-1.45,1.08-2.19,1.6-1,.7-1.91,1.39-2.89,2.06-2.86,2.07-5.77,4.06-8.7,6a2.6,2.6,0,0,1-.3.2c-1.26.85-2.52,1.69-3.8,2.49-1.58,1.05-3.17,2-4.75,3-1.41.89-2.8,1.76-4.23,2.63l-.76.45c-1.63,1-3.28,2-4.92,2.93-.35.22-.7.41-1,.61-1.85,1.08-3.72,2.15-5.6,3.19s-4,2.23-6.06,3.3-4.05,2.14-6.11,3.19-4.1,2.08-6.19,3.08H490.19a73.77,73.77,0,0,1,0-147.53H728.37C730.69,602.06,733,602.16,735.25,602.38Z"/><path class="cls-4" d="M729.22,401.74a56.34,56.34,0,0,1-39.84,96.18H507.46a56.35,56.35,0,0,1,0-112.69H611.69a21.37,21.37,0,0,0,6.18-4.32A21.69,21.69,0,0,0,604.7,344v-.1h-27a75.94,75.94,0,0,1,0-151.87h130a368.12,368.12,0,0,1,43.43,71.59q5.51,11.85,10.11,24.19.94,2.47,1.82,4.95c.61,1.65,1.2,3.3,1.76,5s1.13,3.34,1.67,5a360.21,360.21,0,0,1,10.89,41.16H676.3v.1a21.71,21.71,0,0,0-6.94,41.25h20A56.16,56.16,0,0,1,729.22,401.74Z"/><rect class="cls-5" x="350.87" y="116.07" width="271.2" height="93.29" rx="46.65"/><path class="cls-5" d="M233.71,303.74a46.67,46.67,0,0,1-46.65,46.65H53.27a365.44,365.44,0,0,1,30.54-93.3H187.06a46.63,46.63,0,0,1,46.52,43.4C233.67,301.57,233.71,302.65,233.71,303.74Z"/><rect class="cls-5" x="374.73" y="337.37" width="180.07" height="93.29" rx="46.65"/><path class="cls-5" d="M620.67,724.48a2.6,2.6,0,0,1-.3.2c-1.26.85-2.52,1.69-3.8,2.49-1.58,1.05-3.17,2-4.75,3-1.41.89-2.8,1.76-4.23,2.63l-.76.45c-1.63,1-3.28,2-4.92,2.93-.35.22-.7.41-1,.61-1.85,1.08-3.72,2.15-5.6,3.19s-4,2.23-6.06,3.3-4.05,2.14-6.11,3.19-4.1,2.08-6.19,3.08a366,366,0,0,1-115.07,34,46.45,46.45,0,0,1-11.17-30.25,45.76,45.76,0,0,1,2.14-14,46.67,46.67,0,0,1,44.5-32.67h86.78A46.46,46.46,0,0,1,620.67,724.48Z"/><path class="cls-5" d="M266.25,133.43a36.87,36.87,0,0,1-36.88,36.88h-87a370.3,370.3,0,0,1,91.51-73.48A36.86,36.86,0,0,1,266.25,133.43Z"/><path class="cls-5" d="M320.49,753.38a36.79,36.79,0,0,1-5.34,19.14,367,367,0,0,1-115.4-56h83.86A36.88,36.88,0,0,1,320.49,753.38Z"/><path class="cls-5" d="M783.17,382.93H673.05a57.81,57.81,0,0,1-8.27-.59,59.66,59.66,0,0,1,8.27-118.74h78.1q5.51,11.85,10.11,24.19.94,2.47,1.82,4.95c.61,1.65,1.2,3.3,1.76,5s1.13,3.34,1.67,5a366.64,366.64,0,0,1,16.66,80.21Z"/><path class="cls-5" d="M781.7,465.37a366,366,0,0,1-18.94,78.11H628.57a39.05,39.05,0,0,1-39.05-39.06,37.59,37.59,0,0,1,.56-6.5,39,39,0,0,1,38.49-32.55Z"/><path class="cls-5" d="M399,565.47H312.14c.47,0,1,0,1.44-.05-13.37-.68-24-10.24-24-21.94a20.52,20.52,0,0,1,7.47-15.55,27.23,27.23,0,0,1,16.49-6.4c-.48,0-1,0-1.44,0h14.68a37.82,37.82,0,1,0,0-75.64H182.58a37.82,37.82,0,0,0,0,75.64h32.81c14.09,0,25.5,9.84,25.5,22A20.5,20.5,0,0,1,233.42,559a27.52,27.52,0,0,1-18,6.45h-4.67a37.82,37.82,0,0,0,0,75.64H399a37.82,37.82,0,1,0,0-75.64Z"/><path class="cls-6" d="M784.78,417.64a366.86,366.86,0,0,1-49.53,184.74q-1.92,3.32-3.91,6.57c-.87,1.41-1.73,2.82-2.62,4.24-1.5,2.43-3.06,4.81-4.62,7.2-1.15,1.76-2.33,3.49-3.52,5.23s-2.54,3.66-3.84,5.49a2.85,2.85,0,0,1-.17.26c-1.22,1.69-2.43,3.38-3.69,5-2.91,4-5.94,7.92-9,11.78-1.26,1.59-2.56,3.17-3.86,4.73-1.45,1.76-2.93,3.52-4.4,5.23a.62.62,0,0,0-.09.11c-1.48,1.69-2.93,3.36-4.43,5s-3.06,3.39-4.6,5.06-3,3.21-4.51,4.79c-3.51,3.65-7.07,7.21-10.72,10.7q-1.65,1.59-3.34,3.17c-1.84,1.71-3.69,3.42-5.57,5.09-1.3,1.18-2.63,2.35-3.95,3.5-1.15,1-2.3,2-3.47,3s-2.41,2.06-3.63,3.06c-1.47,1.24-3,2.45-4.46,3.65l-.57.45c-1.69,1.37-3.43,2.73-5.16,4.06q-2.12,1.65-4.3,3.27l-2.32,1.72c-.74.54-1.45,1.08-2.19,1.6-1,.7-1.91,1.39-2.89,2.06-2.86,2.07-5.77,4.06-8.7,6a2.6,2.6,0,0,1-.3.2c-1.26.85-2.52,1.69-3.8,2.49-1.58,1.05-3.17,2-4.75,3-1.41.89-2.8,1.76-4.23,2.63l-.76.45c-1.63,1-3.28,2-4.92,2.93-.35.22-.7.41-1,.61-1.85,1.08-3.72,2.15-5.6,3.19s-4,2.23-6.06,3.3-4.05,2.14-6.11,3.19-4.1,2.08-6.19,3.08a366,366,0,0,1-115.07,34A368.64,368.64,0,0,1,131.11,652q-8.21-10-15.73-20.53A369.19,369.19,0,0,0,490.13,662.8c2.08-1,4.14-2,6.18-3.08s4.1-2.1,6.12-3.19,4.06-2.17,6.06-3.29,3.75-2.11,5.59-3.19c.35-.2.7-.39,1-.61,1.65-1,3.3-1.93,4.93-2.93.26-.15.52-.3.76-.46,1.43-.86,2.82-1.73,4.23-2.62,1.58-1,3.17-2,4.75-3,1.28-.8,2.54-1.65,3.8-2.49l.3-.2c2.93-2,5.84-4,8.7-6,1-.67,1.93-1.37,2.89-2.06.73-.52,1.45-1.06,2.19-1.61s1.54-1.14,2.32-1.71q2.18-1.62,4.29-3.28c1.74-1.32,3.48-2.69,5.17-4,.19-.15.39-.31.56-.46,1.5-1.19,3-2.41,4.47-3.64,1.21-1,2.43-2,3.62-3.06s2.33-2,3.48-3c1.32-1.15,2.64-2.32,3.94-3.49,1.89-1.67,3.73-3.38,5.58-5.1,1.13-1,2.24-2.1,3.34-3.16,3.65-3.5,7.21-7.06,10.72-10.7,1.52-1.58,3-3.19,4.51-4.8s3.08-3.36,4.6-5.05,3-3.34,4.43-5a.59.59,0,0,1,.08-.11c1.48-1.72,3-3.47,4.41-5.23,1.3-1.56,2.6-3.15,3.86-4.73,3.1-3.86,6.14-7.79,9.05-11.78,1.26-1.67,2.47-3.36,3.68-5.06a1.1,1.1,0,0,0,.18-.26c1.3-1.82,2.58-3.64,3.84-5.49s2.36-3.47,3.51-5.22c1.57-2.39,3.13-4.78,4.62-7.21.89-1.41,1.76-2.82,2.63-4.23,1.32-2.17,2.63-4.36,3.9-6.57a366.18,366.18,0,0,0,46.46-137A370.44,370.44,0,0,0,698,330.86q0-17.58-1.61-34.71a366.33,366.33,0,0,0-16.66-80.21c-.54-1.67-1.11-3.34-1.67-5s-1.15-3.32-1.76-5-1.19-3.3-1.82-5q-4.62-12.33-10.11-24.19A367,367,0,0,0,629.7,117q11,7.83,21.32,16.4A370,370,0,0,1,751.15,263.6q5.51,11.85,10.11,24.19.94,2.47,1.82,4.95c.61,1.65,1.2,3.3,1.76,5s1.13,3.34,1.67,5a366.64,366.64,0,0,1,16.66,80.21Q784.78,400.08,784.78,417.64Z"/><path class="cls-7" d="M459.34,641.11a282.75,282.75,0,0,1-39.92,145.34c-1.15,0-2.32,0-3.47,0A368.47,368.47,0,0,1,47.13,417.64q0-15.69,1.3-31a282.71,282.71,0,0,1,126.7-29.75C332.1,356.89,459.34,484.14,459.34,641.11Z"/><circle class="cls-8" cx="289.57" cy="265.23" r="119.87"/></g></g></g></g></g></svg>