<svg xmlns="http://www.w3.org/2000/svg" viewBox="0 0 832.87 482.49"><defs><style>.cls-1,.cls-3{fill:#2b0087;}.cls-1,.cls-2,.cls-3,.cls-5{stroke:#2b0087;}.cls-1,.cls-2,.cls-3,.cls-4,.cls-5{stroke-linecap:round;stroke-linejoin:round;}.cls-1{stroke-width:22.98px;}.cls-2,.cls-5{fill:#3e00b3;}.cls-2,.cls-3,.cls-4{stroke-width:14.02px;}.cls-4{fill:none;stroke:#3e00b3;}.cls-5{stroke-width:14.02px;}</style></defs><g id="Ebene_2" data-name="Ebene 2"><g id="Assets"><rect class="cls-1" x="11.49" y="11.49" width="809.9" height="459.52"/><polygon class="cls-2" points="775.43 182.66 57.44 182.66 11.49 11.49 821.39 11.49 775.43 182.66"/><polygon class="cls-3" points="289.5 59.74 289.5 148.19 106.84 148.19 82.94 59.74 289.5 59.74"/><polygon class="cls-2" points="289.5 43.65 289.5 132.11 106.84 132.11 82.94 43.65 289.5 43.65"/><polygon class="cls-3" points="543.38 59.74 543.38 148.19 726.04 148.19 749.93 59.74 543.38 59.74"/><polygon class="cls-2" points="543.38 43.65 543.38 132.11 726.04 132.11 749.93 43.65 543.38 43.65"/><rect class="cls-3" x="324.53" y="59.74" width="183.81" height="59.74"/><rect class="cls-2" x="324.53" y="43.65" width="183.81" height="59.74"/><line class="cls-4" x1="775.43" y1="458.23" x2="775.43" y2="471"/><line class="cls-4" x1="775.43" y1="373.36" x2="775.43" y2="458.23"/><line class="cls-4" x1="775.43" y1="323.96" x2="775.43" y2="341.87"/><line class="cls-4" x1="775.43" y1="217.12" x2="775.43" y2="289.92"/><path class="cls-5" d="M227.7,415.86h-129a15.33,15.33,0,0,1-15.33-15.33V246.24a15.33,15.33,0,0,1,15.33-15.33h175A15.32,15.32,0,0,1,289,246.24v24.08a15.31,15.31,0,0,1-4.39,10.74l-37.17,37.85A15.37,15.37,0,0,0,243,329.65v70.88A15.33,15.33,0,0,1,227.7,415.86Z"/><path class="cls-5" d="M605.58,415.86h129a15.33,15.33,0,0,0,15.33-15.33V246.24a15.33,15.33,0,0,0-15.33-15.33h-175a15.33,15.33,0,0,0-15.33,15.33v24.08a15.31,15.31,0,0,0,4.39,10.74l37.17,37.85a15.37,15.37,0,0,1,4.39,10.74v70.88A15.33,15.33,0,0,0,605.58,415.86Z"/><path class="cls-5" d="M485.43,268.45V246.06c0-8.37-7.21-15.15-16.1-15.15H369.42c-8.89,0-16.1,6.78-16.1,15.15V274.7H354l-37.27,38.92a14.64,14.64,0,0,0-4.14,10.15v76.94c0,8.37,7.2,15.15,16.1,15.15H510.11c8.89,0,16.1-6.78,16.1-15.15V323.65a14.65,14.65,0,0,0-4-10l-32.8-35.22A14.65,14.65,0,0,1,485.43,268.45Z"/></g></g></svg>