<svg xmlns="http://www.w3.org/2000/svg" viewBox="0 0 834.36 723.35"><defs><style>.cls-1{fill:#1f2189;}.cls-2,.cls-4{fill:#171866;}.cls-2{opacity:0.8;}.cls-3{fill:#3638c7;}.cls-5{fill:none;stroke:#3638c7;stroke-linecap:round;stroke-miterlimit:10;stroke-width:25.38px;}</style></defs><g id="Ebene_2" data-name="Ebene 2"><g id="Assets"><g id="Astroid"><path class="cls-1" d="M829.53,512.13c-26.21,128.5-151.67,211.45-280.17,185.24-7.82-1.59-15.45-3.56-22.9-5.85a330.76,330.76,0,0,1-108.46.89,286.86,286.86,0,0,1-187.29,25.08c-156-31.82-256.66-184-224.84-340a286.81,286.81,0,0,1,93.52-160,236.59,236.59,0,0,1,3.91-27.33C129.51,61.58,255-21.37,383.46,4.84A237.14,237.14,0,0,1,456.76,33,332.35,332.35,0,0,1,708,134.28c2.91,3,5.73,6.05,8.5,9.17a332.16,332.16,0,0,1,83.76,198.74c2.05,3.38,4,6.85,5.88,10.34A236.58,236.58,0,0,1,829.53,512.13Z"/><path class="cls-2" d="M748.42,647.46a236.94,236.94,0,0,1-199.06,49.91c-7.82-1.59-15.45-3.56-22.9-5.85a330.76,330.76,0,0,1-108.46.89,286.86,286.86,0,0,1-187.29,25.08c-156-31.82-256.66-184-224.84-340a286.81,286.81,0,0,1,93.52-160A237,237,0,0,1,227.18,26.47,236.21,236.21,0,0,0,146.07,161.8a238.94,238.94,0,0,0-3.91,27.32,286.8,286.8,0,0,0-93.51,160c-31.82,156,68.83,308.23,224.83,340.05a286.89,286.89,0,0,0,187.3-25.08,330.49,330.49,0,0,0,108.46-.9c7.45,2.3,15.08,4.27,22.89,5.86A236.24,236.24,0,0,0,748.42,647.46Z"/><path class="cls-3" d="M686.23,569.1a58.53,58.53,0,0,1-29.77,40l-14.88,6.45a58.73,58.73,0,0,1-51.06-105.67l14.79-6.42a58.76,58.76,0,0,1,80.92,65.61Z"/><rect class="cls-4" x="66.38" y="386.87" width="111.54" height="111.41" rx="55.71" transform="translate(-165.82 84.99) rotate(-23.42)"/><path class="cls-5" d="M116.62,387.11a55.73,55.73,0,0,1,56.7,33.3h0a55.72,55.72,0,0,1-29,73.26l-.12.05"/><rect class="cls-4" x="255.98" y="519.64" width="146.5" height="128.42" rx="64.21" transform="translate(-204.91 178.92) rotate(-23.42)"/><path class="cls-5" d="M336.39,516a64.26,64.26,0,0,1,60.06,38.7h0A64.22,64.22,0,0,1,363,639.18"/><rect class="cls-4" x="192.65" y="158.87" width="146.5" height="128.42" rx="64.21" transform="translate(-66.75 124.04) rotate(-23.42)"/><path class="cls-5" d="M275.91,155.29A64.19,64.19,0,0,1,333.11,194h0a64.21,64.21,0,0,1-33.4,84.44"/><path class="cls-3" d="M829.53,512.13A237,237,0,0,1,705.64,675.74a237.43,237.43,0,0,0,51.87-305.27C747.73,225.16,642.38,98.35,492.73,67.83A332.17,332.17,0,0,0,414,61.32a237.42,237.42,0,0,0-229.57-6.57A237.5,237.5,0,0,1,456.76,33a332.8,332.8,0,0,1,78.75,6.52c149.64,30.52,255,157.33,264.77,302.64A236.62,236.62,0,0,1,829.53,512.13Z"/><path class="cls-3" d="M806.16,352.53c-.69.34-1.39.64-2.08,1l-93.16,40.35a119.66,119.66,0,1,1-95.12-219.6L708,134.28a332.33,332.33,0,0,1,92.26,207.91C802.33,345.57,804.29,349,806.16,352.53Z"/><path class="cls-1" d="M718.54,301.85a58.58,58.58,0,0,1-29.77,40l-14.88,6.45a58.73,58.73,0,0,1-51.06-105.68l14.79-6.41a58.76,58.76,0,0,1,80.92,65.61Z"/><path class="cls-3" d="M500.4,446.07a58.54,58.54,0,0,1-29.77,40l-12.95,5.61A58.75,58.75,0,0,0,398.8,391l-1.95.83a59.84,59.84,0,0,1,7.83-5l14.78-6.42a58.81,58.81,0,0,1,80.94,65.61Z"/><path class="cls-3" d="M509.15,203.62a58.57,58.57,0,0,1-29.78,40l-12.95,5.61a58.74,58.74,0,0,0-58.88-100.68l-1.94.83a58.17,58.17,0,0,1,7.83-5L428.2,138a58.82,58.82,0,0,1,80.95,65.62Z"/><path class="cls-3" d="M293,421a30.49,30.49,0,0,1-15.51,20.85l-6.74,2.92a30.59,30.59,0,0,0-30.67-52.43l-1,.43a31.44,31.44,0,0,1,4.08-2.6l7.69-3.34A30.63,30.63,0,0,1,293,421Z"/></g></g></g></svg>