<svg xmlns="http://www.w3.org/2000/svg" xmlns:xlink="http://www.w3.org/1999/xlink" viewBox="0 0 835 835.06"><defs><style>.cls-1{fill:url(#Unbenannter_Verlauf_5);}.cls-2{fill:#07108c;}.cls-3{fill:#0242fe;}.cls-4{fill:#90129a;}.cls-5{fill:#02f1ff;}.cls-6{fill:#7e21ff;}.cls-7{fill:#04c5d8;}</style><radialGradient id="Unbenannter_Verlauf_5" cx="-656.67" cy="-10.19" r="834.64" gradientTransform="translate(879.04 445.52) scale(0.69 1.22)" gradientUnits="userSpaceOnUse"><stop offset="0" stop-color="#001f69"/><stop offset="0.75" stop-color="#08153a"/><stop offset="1" stop-color="#0b1129"/></radialGradient></defs><g id="Ebene_2" data-name="Ebene 2"><g id="Assets"><g id="Sky"><g id="Sky-2" data-name="Sky"><rect class="cls-1" y="0.03" width="835" height="835"/></g><g id="Stars"><circle class="cls-2" cx="744.46" cy="594.44" r="1.66"/><circle class="cls-2" cx="732.91" cy="630.09" r="0.45"/><circle class="cls-2" cx="738.42" cy="644.77" r="0.22"/><circle class="cls-2" cx="742.13" cy="654.04" r="1.04"/><circle class="cls-2" cx="752.98" cy="734.67" r="1.47"/><circle class="cls-2" cx="744.91" cy="719.11" r="1.41"/><circle class="cls-2" cx="749.73" cy="816.83" r="0.92"/><circle class="cls-2" cx="719.38" cy="592.56" r="1.59"/><circle class="cls-2" cx="700.5" cy="605.3" r="0.13"/><circle class="cls-2" cx="706.12" cy="647.78" r="0.52"/><circle class="cls-2" cx="716.26" cy="702.81" r="1.56"/><circle class="cls-2" cx="712.53" cy="829.77" r="1.17"/><circle class="cls-2" cx="820.46" cy="614.6" r="0.55"/><circle class="cls-2" cx="814.72" cy="614.31" r="0.17"/><circle class="cls-2" cx="764.98" cy="601.66" r="1.5"/><circle class="cls-2" cx="671.03" cy="595.71" r="1.57"/><circle class="cls-2" cx="690.54" cy="621.09" r="0.66"/><circle class="cls-2" cx="689.98" cy="642.71" r="0.5"/><circle class="cls-2" cx="686.58" cy="710.92" r="0.22"/><circle class="cls-2" cx="687.94" cy="734.44" r="1.2"/><circle class="cls-2" cx="680.39" cy="829.8" r="0.93"/><circle class="cls-2" cx="793.12" cy="585" r="1.05"/><circle class="cls-2" cx="757.26" cy="561.81" r="0.45"/><circle class="cls-2" cx="668.53" cy="588.41" r="1.38"/><circle class="cls-2" cx="563.1" cy="601.91" r="0.61"/><circle class="cls-2" cx="561.52" cy="637.45" r="1.67"/><circle class="cls-2" cx="646.72" cy="677.54" r="0.67"/><circle class="cls-2" cx="667.34" cy="735.93" r="1.54"/><circle class="cls-2" cx="822.23" cy="571.43" r="1.33"/><circle class="cls-2" cx="799.07" cy="565.48" r="0.32"/><circle class="cls-2" cx="766.74" cy="557.59" r="1.38"/><circle class="cls-2" cx="510.78" cy="564.29" r="1.6"/><circle class="cls-2" cx="536.14" cy="609.45" r="1.03"/><circle class="cls-2" cx="550.09" cy="636.59" r="1.42"/><circle class="cls-2" cx="618.17" cy="748.44" r="0.75"/><circle class="cls-2" cx="609.37" cy="768.82" r="1.33"/><circle class="cls-2" cx="609.64" cy="790.86" r="1.36"/><circle class="cls-2" cx="610.21" cy="820.98" r="0.54"/><circle class="cls-2" cx="804.35" cy="532.73" r="0.72"/><circle class="cls-2" cx="771.07" cy="525.49" r="1.55"/><circle class="cls-2" cx="503.84" cy="561.73" r="0.34"/><circle class="cls-2" cx="511.78" cy="593.67" r="0.51"/><circle class="cls-2" cx="580.96" cy="704.44" r="1.28"/><circle class="cls-2" cx="516.62" cy="731.28" r="0.79"/><circle class="cls-2" cx="513.39" cy="729.98" r="0.54"/><circle class="cls-2" cx="566.06" cy="783.63" r="1.46"/><circle class="cls-2" cx="513.91" cy="816.09" r="0.14"/><circle class="cls-2" cx="528.61" cy="832.09" r="0.64"/><circle class="cls-2" cx="803.96" cy="454.75" r="0.76"/><circle class="cls-2" cx="648.56" cy="202.5" r="0.45"/><circle class="cls-2" cx="592.33" cy="232.71" r="0.32"/><circle class="cls-2" cx="639.08" cy="206.73" r="1.38"/><circle class="cls-2" cx="506.01" cy="236.52" r="0.75"/><circle class="cls-2" cx="526.39" cy="245.32" r="1.33"/><circle class="cls-2" cx="562.63" cy="275.73" r="1.36"/><circle class="cls-2" cx="592.75" cy="275.16" r="0.54"/><circle class="cls-2" cx="647.59" cy="244.55" r="0.72"/><circle class="cls-2" cx="680.88" cy="251.79" r="1.55"/><circle class="cls-2" cx="503.58" cy="265.08" r="0.54"/><circle class="cls-2" cx="577.02" cy="302.01" r="1.46"/><circle class="cls-2" cx="679.01" cy="298.92" r="0.76"/><circle class="cls-2" cx="784.65" cy="458.9" r="1.23"/><circle class="cls-2" cx="482.18" cy="559.72" r="1.5"/><circle class="cls-2" cx="479.04" cy="586.14" r="0.1"/><circle class="cls-2" cx="526.67" cy="680.51" r="0.28"/><circle class="cls-2" cx="495.29" cy="723.1" r="0.31"/><circle class="cls-2" cx="508.98" cy="760.54" r="1.62"/><circle class="cls-2" cx="484.47" cy="767.15" r="1.24"/><circle class="cls-2" cx="489.58" cy="803.34" r="1.66"/><circle class="cls-2" cx="824.15" cy="450.87" r="0.87"/><circle class="cls-2" cx="791.41" cy="439.07" r="0.51"/><circle class="cls-2" cx="767.51" cy="438.4" r="1.52"/><circle class="cls-2" cx="410.39" cy="399.34" r="1.55"/><circle class="cls-2" cx="454.62" cy="596.63" r="1.68"/><circle class="cls-2" cx="495.45" cy="694.72" r="1.59"/><circle class="cls-2" cx="394" cy="667.83" r="1.28"/><circle class="cls-2" cx="473.3" cy="737.54" r="1.23"/><circle class="cls-2" cx="463.78" cy="789.45" r="1.12"/><circle class="cls-2" cx="461.65" cy="794.89" r="0.22"/><circle class="cls-2" cx="818.8" cy="415.64" r="0.3"/><circle class="cls-2" cx="797.06" cy="422.9" r="0.99"/><circle class="cls-2" cx="772.36" cy="413.06" r="0.11"/><circle class="cls-2" cx="380.74" cy="373.92" r="1.06"/><circle class="cls-2" cx="381.89" cy="577.32" r="1.35"/><circle class="cls-2" cx="374.14" cy="583.15" r="0.96"/><circle class="cls-2" cx="372.19" cy="671.48" r="1.57"/><circle class="cls-2" cx="747.81" cy="325.31" r="1.66"/><circle class="cls-2" cx="740.57" cy="430.15" r="0.45"/><circle class="cls-2" cx="746.09" cy="444.83" r="0.22"/><circle class="cls-2" cx="749.8" cy="454.11" r="1.04"/><circle class="cls-2" cx="714.52" cy="426.62" r="1.47"/><circle class="cls-2" cx="706.45" cy="411.06" r="1.41"/><circle class="cls-2" cx="722.72" cy="323.44" r="1.59"/><circle class="cls-2" cx="703.84" cy="336.17" r="0.13"/><circle class="cls-2" cx="713.79" cy="447.84" r="0.52"/><circle class="cls-2" cx="686.45" cy="404.14" r="1.56"/><circle class="cls-2" cx="674.38" cy="326.59" r="1.57"/><circle class="cls-2" cx="693.88" cy="351.96" r="0.66"/><circle class="cls-2" cx="697.65" cy="442.77" r="0.5"/><circle class="cls-2" cx="660.94" cy="415.69" r="0.22"/><circle class="cls-2" cx="671.87" cy="319.29" r="1.38"/><circle class="cls-2" cx="356.96" cy="268.06" r="1.66"/><circle class="cls-2" cx="300.12" cy="262.82" r="0.45"/><circle class="cls-2" cx="293.64" cy="277.1" r="0.22"/><circle class="cls-2" cx="307.47" cy="211.15" r="1.59"/><circle class="cls-2" cx="294.73" cy="222.38" r="0.13"/><circle class="cls-2" cx="268.67" cy="256.39" r="0.52"/><circle class="cls-2" cx="335.73" cy="284.81" r="1.57"/><circle class="cls-2" cx="276.52" cy="226.5" r="0.66"/><circle class="cls-2" cx="260.84" cy="241.39" r="0.5"/><circle class="cls-2" cx="284.07" cy="187.83" r="1.38"/><circle class="cls-2" cx="572.93" cy="350.81" r="0.61"/><circle class="cls-2" cx="571.34" cy="386.34" r="1.67"/><circle class="cls-2" cx="639.35" cy="407.25" r="0.67"/><circle class="cls-2" cx="530.23" cy="328.75" r="1.6"/><circle class="cls-2" cx="545.97" cy="358.34" r="1.03"/><circle class="cls-2" cx="559.92" cy="385.48" r="1.42"/><circle class="cls-2" cx="618.23" cy="503.23" r="0.75"/><circle class="cls-2" cx="501.67" cy="295.2" r="0.34"/><circle class="cls-2" cx="499.99" cy="311.58" r="0.51"/><circle class="cls-2" cx="571.9" cy="439.49" r="1.28"/><circle class="cls-2" cx="494.54" cy="413.91" r="0.79"/><circle class="cls-2" cx="480.01" cy="293.19" r="1.5"/><circle class="cls-2" cx="476.86" cy="319.61" r="0.1"/><circle class="cls-2" cx="483.17" cy="371.74" r="0.28"/><circle class="cls-2" cx="465.52" cy="399.68" r="0.31"/><circle class="cls-2" cx="371.52" cy="120.27" r="1.55"/><circle class="cls-2" cx="461.57" cy="349.85" r="1.68"/><circle class="cls-2" cx="470.69" cy="421.27" r="1.59"/><circle class="cls-2" cx="460.09" cy="424.41" r="1.28"/><circle class="cls-2" cx="469.95" cy="455.49" r="1.23"/><circle class="cls-2" cx="356.52" cy="118.66" r="1.06"/><circle class="cls-2" cx="362.48" cy="156.98" r="1.35"/><circle class="cls-2" cx="354.73" cy="162.82" r="0.96"/><circle class="cls-2" cx="356.9" cy="220.93" r="1.57"/><circle class="cls-2" cx="217.19" cy="218.77" r="1.66"/><circle class="cls-2" cx="258.42" cy="91.88" r="1.55"/><circle class="cls-2" cx="243.42" cy="90.27" r="1.06"/><circle class="cls-2" cx="249.38" cy="128.59" r="1.35"/><circle class="cls-2" cx="241.63" cy="134.43" r="0.96"/><circle class="cls-2" cx="243.81" cy="192.54" r="1.57"/><circle class="cls-2" cx="705.07" cy="445.91" r="0.22"/><circle class="cls-2" cx="708.79" cy="455.18" r="1.04"/><circle class="cls-2" cx="737.65" cy="582.65" r="1.47"/><circle class="cls-2" cx="702.91" cy="510.88" r="1.41"/><circle class="cls-2" cx="672.77" cy="448.91" r="0.52"/><circle class="cls-2" cx="674.26" cy="494.58" r="1.56"/><circle class="cls-2" cx="656.64" cy="443.84" r="0.5"/><circle class="cls-2" cx="657.41" cy="515.51" r="0.22"/><circle class="cls-2" cx="567.81" cy="486.15" r="1.67"/><circle class="cls-2" cx="644.21" cy="538.34" r="0.67"/><circle class="cls-2" cx="708.21" cy="209.11" r="1.56"/><circle class="cls-2" cx="716.99" cy="194.32" r="0.22"/><circle class="cls-2" cx="661.1" cy="212.22" r="0.67"/><circle class="cls-2" cx="728.82" cy="227.54" r="0.52"/><circle class="cls-2" cx="730.31" cy="273.21" r="1.56"/><circle class="cls-2" cx="712.68" cy="222.47" r="0.5"/><circle class="cls-2" cx="683.21" cy="276.32" r="0.67"/><circle class="cls-2" cx="556.39" cy="485.29" r="1.42"/><circle class="cls-2" cx="614.69" cy="603.04" r="0.75"/><circle class="cls-2" cx="555.39" cy="547.95" r="1.28"/><circle class="cls-2" cx="499.65" cy="553.36" r="0.79"/><circle class="cls-2" cx="501.25" cy="502.54" r="0.28"/><circle class="cls-2" cx="470.64" cy="539.13" r="0.31"/><circle class="cls-2" cx="457.06" cy="525.4" r="1.59"/><circle class="cls-2" cx="446.46" cy="528.55" r="1.28"/><circle class="cls-2" cx="456.33" cy="559.62" r="1.23"/><circle class="cls-2" cx="384.06" cy="349.11" r="1.57"/><circle class="cls-2" cx="445.41" cy="761.35" r="0.18"/><circle class="cls-2" cx="448.34" cy="786.81" r="0.73"/><circle class="cls-2" cx="447.84" cy="812.73" r="0.03"/><circle class="cls-2" cx="808.06" cy="394.36" r="0.28"/><circle class="cls-2" cx="801.87" cy="389.35" r="1.55"/><circle class="cls-2" cx="269.28" cy="734.01" r="1.6"/><circle class="cls-2" cx="280.45" cy="748.49" r="1.03"/><circle class="cls-2" cx="262.34" cy="731.46" r="0.34"/><circle class="cls-2" cx="270.28" cy="763.4" r="0.51"/><circle class="cls-2" cx="757.4" cy="179.68" r="0.79"/><circle class="cls-2" cx="204.65" cy="717.2" r="1.5"/><circle class="cls-2" cx="201.5" cy="743.61" r="0.1"/><circle class="cls-2" cx="808.22" cy="120.74" r="0.28"/><circle class="cls-2" cx="770.91" cy="71.39" r="0.31"/><circle class="cls-2" cx="186.15" cy="822.99" r="1.68"/><circle class="cls-2" cx="784.64" cy="57.81" r="1.59"/><circle class="cls-2" cx="781.5" cy="47.21" r="1.28"/><circle class="cls-2" cx="173.43" cy="779.26" r="1.06"/><circle class="cls-2" cx="822.11" cy="111.02" r="1.35"/><circle class="cls-2" cx="812.41" cy="111.06" r="0.96"/><circle class="cls-2" cx="202.99" cy="406.15" r="1.57"/><circle class="cls-2" cx="236.75" cy="648.45" r="0.79"/><circle class="cls-2" cx="284.85" cy="678.9" r="0.31"/><circle class="cls-2" cx="169.5" cy="731.72" r="1.59"/><circle class="cls-2" cx="165.67" cy="742.09" r="1.28"/><circle class="cls-2" cx="196.47" cy="752.79" r="1.23"/><circle class="cls-2" cx="202.45" cy="352.98" r="1.57"/><circle class="cls-2" cx="272.78" cy="648.25" r="0.18"/><circle class="cls-2" cx="278.82" cy="664.65" r="0.73"/><circle class="cls-2" cx="278.32" cy="690.58" r="0.03"/><circle class="cls-2" cx="179.37" cy="737.22" r="0.28"/><circle class="cls-2" cx="349.28" cy="823.38" r="1.6"/><circle class="cls-2" cx="342.34" cy="820.83" r="0.34"/><circle class="cls-2" cx="812.99" cy="276.07" r="0.51"/><circle class="cls-2" cx="284.65" cy="806.57" r="1.5"/><circle class="cls-2" cx="281.5" cy="832.98" r="0.1"/><circle class="cls-2" cx="797.13" cy="179.23" r="1.06"/><circle class="cls-2" cx="249.5" cy="821.09" r="1.59"/><circle class="cls-2" cx="245.67" cy="831.46" r="1.28"/><circle class="cls-2" cx="823.6" cy="202.26" r="1.23"/><circle class="cls-2" cx="259.37" cy="826.59" r="0.28"/><circle class="cls-2" cx="767.02" cy="391.46" r="0.09"/><circle class="cls-2" cx="287.41" cy="463.17" r="0.71"/><circle class="cls-2" cx="296.77" cy="242.22" r="1.56"/><circle class="cls-2" cx="293.03" cy="369.18" r="1.17"/><circle class="cls-2" cx="269.31" cy="384.71" r="0.55"/><circle class="cls-2" cx="269.03" cy="390.45" r="0.17"/><circle class="cls-2" cx="256.37" cy="440.19" r="1.5"/><circle class="cls-2" cx="270.38" cy="483.41" r="1.29"/><circle class="cls-2" cx="300.66" cy="486.66" r="0.6"/><circle class="cls-2" cx="297.97" cy="552.26" r="1.54"/><circle class="cls-2" cx="286.06" cy="620.27" r="0.06"/><circle class="cls-2" cx="278.56" cy="635.79" r="1.56"/><circle class="cls-2" cx="300.65" cy="657.43" r="0.16"/><circle class="cls-2" cx="267.09" cy="250.33" r="0.22"/><circle class="cls-2" cx="268.45" cy="273.85" r="1.2"/><circle class="cls-2" cx="260.89" cy="369.21" r="0.93"/><circle class="cls-2" cx="239.72" cy="412.05" r="1.05"/><circle class="cls-2" cx="216.53" cy="447.91" r="0.45"/><circle class="cls-2" cx="245.68" cy="523.25" r="1.58"/><circle class="cls-2" cx="277.49" cy="496.63" r="0.97"/><circle class="cls-2" cx="278.58" cy="519.16" r="0.19"/><circle class="cls-2" cx="261.55" cy="562.15" r="0.17"/><circle class="cls-2" cx="273.88" cy="575.89" r="0.16"/><circle class="cls-2" cx="271.59" cy="605.11" r="0.55"/><circle class="cls-2" cx="277.4" cy="629.45" r="1.16"/><circle class="cls-2" cx="247.84" cy="275.34" r="1.54"/><circle class="cls-2" cx="226.15" cy="382.94" r="1.33"/><circle class="cls-2" cx="220.2" cy="406.1" r="0.32"/><circle class="cls-2" cx="212.3" cy="438.43" r="1.38"/><circle class="cls-2" cx="226.86" cy="520.08" r="0.23"/><circle class="cls-2" cx="251.1" cy="504.23" r="0.35"/><circle class="cls-2" cx="240.45" cy="522.6" r="1.34"/><circle class="cls-2" cx="243.89" cy="540.36" r="1.06"/><circle class="cls-2" cx="249.71" cy="584.27" r="0.08"/><circle class="cls-2" cx="239.23" cy="604.27" r="0.77"/><circle class="cls-2" cx="229.89" cy="636.42" r="1.15"/><circle class="cls-2" cx="232.74" cy="654.29" r="0.72"/><circle class="cls-2" cx="198.68" cy="287.85" r="0.75"/><circle class="cls-2" cx="189.88" cy="308.23" r="1.33"/><circle class="cls-2" cx="190.15" cy="330.27" r="1.36"/><circle class="cls-2" cx="190.72" cy="360.39" r="0.54"/><circle class="cls-2" cx="187.45" cy="400.82" r="0.72"/><circle class="cls-2" cx="180.21" cy="434.1" r="1.55"/><circle class="cls-2" cx="187.31" cy="518.87" r="0.22"/><circle class="cls-2" cx="172.71" cy="504.82" r="0.07"/><circle class="cls-2" cx="191.05" cy="531.2" r="0.82"/><circle class="cls-2" cx="194.75" cy="549.02" r="0.15"/><circle class="cls-2" cx="202.32" cy="605.53" r="0.73"/><circle class="cls-2" cx="217" cy="643.59" r="1.21"/><circle class="cls-2" cx="161.46" cy="243.85" r="1.28"/><circle class="cls-2" cx="97.13" cy="270.69" r="0.79"/><circle class="cls-2" cx="93.9" cy="269.39" r="0.54"/><circle class="cls-2" cx="146.56" cy="323.04" r="1.46"/><circle class="cls-2" cx="94.41" cy="355.5" r="0.14"/><circle class="cls-2" cx="109.11" cy="371.5" r="0.64"/><circle class="cls-2" cx="109.46" cy="401.21" r="0.76"/><circle class="cls-2" cx="113.62" cy="420.51" r="1.23"/><circle class="cls-2" cx="133.73" cy="470.2" r="1.64"/><circle class="cls-2" cx="154.3" cy="527.02" r="0.2"/><circle class="cls-2" cx="143.55" cy="574.08" r="0.76"/><circle class="cls-2" cx="188.24" cy="610.68" r="1.28"/><circle class="cls-2" cx="356.83" cy="437.12" r="0.16"/><circle class="cls-2" cx="75.8" cy="262.51" r="0.31"/><circle class="cls-2" cx="89.49" cy="299.95" r="1.62"/><circle class="cls-2" cx="64.97" cy="306.55" r="1.24"/><circle class="cls-2" cx="70.09" cy="342.75" r="1.66"/><circle class="cls-2" cx="105.59" cy="381.02" r="0.87"/><circle class="cls-2" cx="93.78" cy="413.76" r="0.51"/><circle class="cls-2" cx="93.12" cy="437.66" r="1.52"/><circle class="cls-2" cx="91.36" cy="483.8" r="0.52"/><circle class="cls-2" cx="135.92" cy="544.03" r="0.77"/><circle class="cls-2" cx="137.93" cy="562.32" r="1.47"/><circle class="cls-2" cx="154.13" cy="607.49" r="0.8"/><circle class="cls-2" cx="155.23" cy="648.2" r="0.97"/><circle class="cls-2" cx="53.81" cy="276.94" r="1.23"/><circle class="cls-2" cx="44.29" cy="328.86" r="1.12"/><circle class="cls-2" cx="42.16" cy="334.3" r="0.22"/><circle class="cls-2" cx="70.35" cy="386.37" r="0.3"/><circle class="cls-2" cx="77.61" cy="408.11" r="0.99"/><circle class="cls-2" cx="67.77" cy="432.81" r="0.11"/><circle class="cls-2" cx="84.74" cy="450.33" r="0.31"/><circle class="cls-2" cx="98.31" cy="543.63" r="1.61"/><circle class="cls-2" cx="95.5" cy="558.61" r="1.02"/><circle class="cls-2" cx="104.44" cy="578.42" r="0.13"/><circle class="cls-2" cx="113.69" cy="633.45" r="0.81"/><circle class="cls-2" cx="49.08" cy="397.1" r="0.28"/><circle class="cls-2" cx="44.07" cy="403.3" r="1.55"/><circle class="cls-2" cx="46.18" cy="438.15" r="0.09"/><circle class="cls-2" cx="52.74" cy="482.02" r="0.46"/><circle class="cls-2" cx="74.12" cy="529.4" r="1.01"/><circle class="cls-2" cx="60.33" cy="565.63" r="0.61"/><circle class="cls-2" cx="70.28" cy="578.03" r="0.95"/><circle class="cls-2" cx="93.38" cy="622.64" r="1.02"/><circle class="cls-2" cx="96.93" cy="657.89" r="1.13"/><circle class="cls-2" cx="355.32" cy="407.41" r="1.6"/><circle class="cls-2" cx="341.97" cy="387.92" r="0.34"/><circle class="cls-2" cx="434.07" cy="752.7" r="0.79"/><circle class="cls-2" cx="810.85" cy="354.85" r="0.14"/><circle class="cls-2" cx="798.04" cy="354.44" r="0.64"/><circle class="cls-2" cx="758.93" cy="361.12" r="0.76"/><circle class="cls-2" cx="302.35" cy="376.46" r="1.5"/><circle class="cls-2" cx="308.14" cy="557.4" r="0.1"/><circle class="cls-2" cx="321.77" cy="619.6" r="0.28"/><circle class="cls-2" cx="405.06" cy="738.47" r="0.31"/><circle class="cls-2" cx="426.43" cy="781.96" r="1.62"/><circle class="cls-2" cx="401.91" cy="788.57" r="1.24"/><circle class="cls-2" cx="823.59" cy="330.53" r="1.66"/><circle class="cls-2" cx="788.53" cy="350.92" r="0.87"/><circle class="cls-2" cx="262.91" cy="411.53" r="1.55"/><circle class="cls-2" cx="317.61" cy="598.57" r="1.68"/><circle class="cls-2" cx="300.17" cy="649.38" r="1.59"/><circle class="cls-2" cx="303.76" cy="683.2" r="1.28"/><circle class="cls-2" cx="390.75" cy="758.96" r="1.23"/><circle class="cls-2" cx="378.94" cy="828.28" r="1.12"/><circle class="cls-2" cx="453.92" cy="590.74" r="0.79"/><circle class="cls-2" cx="450.69" cy="589.44" r="0.54"/><circle class="cls-2" cx="451.2" cy="675.55" r="0.14"/><circle class="cls-2" cx="432.59" cy="582.56" r="0.31"/><circle class="cls-2" cx="446.28" cy="620" r="1.62"/><circle class="cls-2" cx="421.76" cy="626.6" r="1.24"/><circle class="cls-2" cx="426.88" cy="662.8" r="1.66"/><circle class="cls-2" cx="432.75" cy="554.18" r="1.59"/><circle class="cls-2" cx="647.72" cy="157.08" r="1.6"/><circle class="cls-2" cx="640.78" cy="154.53" r="0.34"/><circle class="cls-2" cx="619.12" cy="152.52" r="1.5"/><circle class="cls-2" cx="12.92" cy="88.21" r="1.67"/><circle class="cls-2" cx="12.06" cy="99.63" r="1.42"/><circle class="cls-2" cx="755.17" cy="96.02" r="0.75"/><circle class="cls-2" cx="708.83" cy="32.28" r="1.28"/><circle class="cls-2" cx="631.47" cy="6.7" r="0.79"/><circle class="cls-2" cx="26.26" cy="194.04" r="0.31"/><circle class="cls-2" cx="607.62" cy="14.06" r="1.59"/><circle class="cls-2" cx="597.02" cy="17.2" r="1.28"/><circle class="cls-2" cx="606.89" cy="48.28" r="1.23"/><circle class="cls-2" cx="704.74" cy="78.95" r="1.67"/><circle class="cls-2" cx="693.32" cy="78.09" r="1.42"/><circle class="cls-2" cx="692.32" cy="140.74" r="1.28"/><circle class="cls-2" cx="636.59" cy="146.16" r="0.79"/><circle class="cls-2" cx="638.19" cy="95.34" r="0.28"/><circle class="cls-2" cx="607.57" cy="131.93" r="0.31"/><circle class="cls-2" cx="594" cy="118.2" r="1.59"/><circle class="cls-2" cx="583.4" cy="121.34" r="1.28"/><circle class="cls-2" cx="593.26" cy="152.42" r="1.23"/><circle class="cls-2" cx="569.69" cy="146.97" r="1.59"/><circle class="cls-2" cx="410.6" cy="596.99" r="1.23"/><circle class="cls-2" cx="401.08" cy="648.91" r="1.12"/><circle class="cls-2" cx="398.95" cy="654.35" r="0.22"/><circle class="cls-2" cx="382.71" cy="620.81" r="0.18"/><circle class="cls-2" cx="385.64" cy="646.27" r="0.73"/><circle class="cls-2" cx="385.13" cy="672.19" r="0.03"/><circle class="cls-2" cx="371.37" cy="612.16" r="0.79"/><circle class="cls-2" cx="342.35" cy="597.93" r="0.31"/><circle class="cls-2" cx="363.73" cy="641.42" r="1.62"/><circle class="cls-2" cx="339.21" cy="648.03" r="1.24"/><circle class="cls-2" cx="328.05" cy="618.42" r="1.23"/><circle class="cls-2" cx="27.82" cy="260.93" r="0.51"/><circle class="cls-2" cx="20.29" cy="293.67" r="0.1"/><circle class="cls-2" cx="550.45" cy="80.87" r="0.28"/><circle class="cls-2" cx="12.04" cy="364.93" r="1.68"/><circle class="cls-2" cx="519.24" cy="95.08" r="1.59"/><circle class="cls-2" cx="326.97" cy="42.24" r="1.28"/><circle class="cls-2" cx="395.98" cy="71.84" r="1.57"/><circle class="cls-2" cx="6.14" cy="365.64" r="0.79"/><circle class="cls-2" cx="4.85" cy="368.87" r="0.54"/><circle class="cls-2" cx="474.99" cy="75.91" r="0.14"/><circle class="cls-2" cx="423.22" cy="1.62" r="1.62"/><circle class="cls-2" cx="398.7" cy="8.23" r="1.24"/><circle class="cls-2" cx="359.85" cy="37.22" r="1.66"/><circle class="cls-2" cx="12.4" cy="408.96" r="1.23"/><circle class="cls-2" cx="331.92" cy="28.76" r="0.22"/><circle class="cls-2" cx="29.01" cy="480.82" r="0.18"/><circle class="cls-2" cx="318.61" cy="20.68" r="0.73"/><circle class="cls-2" cx="408.92" cy="72.55" r="0.03"/><circle class="cls-2" cx="20.36" cy="492.16" r="0.79"/><circle class="cls-2" cx="6.13" cy="521.17" r="0.31"/><circle class="cls-2" cx="296.7" cy="15.84" r="1.62"/><circle class="cls-2" cx="272.18" cy="22.45" r="1.24"/><circle class="cls-2" cx="26.62" cy="535.48" r="1.23"/><circle class="cls-2" cx="316.24" cy="687.74" r="1.12"/><circle class="cls-2" cx="376.81" cy="833.71" r="0.22"/><circle class="cls-2" cx="796" cy="302.86" r="0.3"/><circle class="cls-2" cx="217.23" cy="341.69" r="1.06"/><circle class="cls-2" cx="239.45" cy="579.41" r="1.35"/><circle class="cls-2" cx="239.03" cy="595.32" r="0.96"/><circle class="cls-2" cx="275.09" cy="593.9" r="1.57"/><circle class="cls-2" cx="337.78" cy="379.55" r="0.79"/><circle class="cls-2" cx="298.83" cy="312.36" r="0.28"/><circle class="cls-2" cx="290.8" cy="355.86" r="0.31"/><circle class="cls-2" cx="291.2" cy="551.61" r="1.59"/><circle class="cls-2" cx="494.97" cy="92" r="0.71"/><circle class="cls-2" cx="477.95" cy="112.24" r="1.29"/><circle class="cls-2" cx="508.22" cy="115.48" r="0.6"/><circle class="cls-2" cx="505.54" cy="181.08" r="1.54"/><circle class="cls-2" cx="453.25" cy="152.07" r="1.58"/><circle class="cls-2" cx="485.06" cy="125.46" r="0.97"/><circle class="cls-2" cx="486.15" cy="147.98" r="0.19"/><circle class="cls-2" cx="434.43" cy="148.91" r="0.23"/><circle class="cls-2" cx="458.67" cy="133.06" r="0.35"/><circle class="cls-2" cx="448.01" cy="151.43" r="1.34"/><circle class="cls-2" cx="451.45" cy="169.19" r="1.06"/><circle class="cls-2" cx="515.71" cy="186.23" r="0.1"/><circle class="cls-2" cx="498.77" cy="180.43" r="1.59"/><circle class="cls-2" cx="251.06" cy="277.97" r="1.28"/><circle class="cls-2" cx="282.9" cy="412.53" r="1.23"/><circle class="cls-2" cx="242.99" cy="342.07" r="1.57"/><circle class="cls-2" cx="275.65" cy="760.44" r="0.18"/><circle class="cls-2" cx="293.59" cy="824.91" r="0.73"/><circle class="cls-2" cx="205.38" cy="145.04" r="0.96"/><circle class="cls-2" cx="224.86" cy="58.86" r="1.57"/><circle class="cls-2" cx="7.08" cy="656.36" r="1.6"/><circle class="cls-2" cx="7.88" cy="663.71" r="0.34"/><circle class="cls-2" cx="7.76" cy="723.14" r="1.5"/><circle class="cls-2" cx="87.87" cy="48.45" r="0.79"/><circle class="cls-2" cx="141.91" cy="30.54" r="0.31"/><circle class="cls-2" cx="122.79" cy="57.35" r="0.18"/><circle class="cls-2" cx="132.61" cy="42.9" r="0.73"/><circle class="cls-2" cx="138.39" cy="17.63" r="0.03"/><circle class="cls-2" cx="128.9" cy="87.72" r="0.06"/><circle class="cls-2" cx="125.38" cy="70.84" r="1.56"/><circle class="cls-2" cx="152.05" cy="55.19" r="0.16"/><circle class="cls-2" cx="91.06" cy="138.18" r="0.17"/><circle class="cls-2" cx="106.35" cy="127.83" r="0.16"/><circle class="cls-2" cx="111.2" cy="98.93" r="0.55"/><circle class="cls-2" cx="122.72" cy="76.72" r="1.16"/><circle class="cls-2" cx="84.92" cy="113.86" r="0.08"/><circle class="cls-2" cx="79.6" cy="91.91" r="0.77"/><circle class="cls-2" cx="78.3" cy="58.46" r="1.15"/><circle class="cls-2" cx="85.39" cy="41.8" r="0.72"/><circle class="cls-2" cx="44.08" cy="81.76" r="0.73"/><circle class="cls-2" cx="67.54" cy="48.38" r="1.21"/><circle class="cls-2" cx="135.11" cy="154.06" r="0.1"/><circle class="cls-2" cx="163.39" cy="97.01" r="0.28"/><circle class="cls-2" cx="154.26" cy="116.41" r="1.68"/><circle class="cls-2" cx="149.63" cy="62.89" r="1.59"/><circle class="cls-2" cx="161.3" cy="30.94" r="1.28"/><circle class="cls-2" cx="209.71" cy="116.22" r="0.79"/><circle class="cls-2" cx="178.12" cy="123.01" r="0.31"/><circle class="cls-2" cx="209.38" cy="85.98" r="1.62"/><circle class="cls-2" cx="187.19" cy="73.64" r="1.24"/><circle class="cls-2" cx="169.19" cy="99.67" r="1.23"/><circle class="cls-2" cx="174.5" cy="29.55" r="1.12"/><circle class="cls-2" cx="73.79" cy="116.09" r="1.35"/><circle class="cls-2" cx="77.23" cy="100.55" r="0.96"/><circle class="cls-2" cx="111.88" cy="110.65" r="1.57"/><circle class="cls-2" cx="814.92" cy="218.88" r="0.03"/><circle class="cls-2" cx="760.76" cy="203.03" r="0.28"/><circle class="cls-3" cx="143.3" cy="290.61" r="1.73"/><circle class="cls-3" cx="155.37" cy="327.84" r="0.47"/><circle class="cls-3" cx="121.07" cy="420.18" r="0.23"/><circle class="cls-3" cx="117.19" cy="429.87" r="1.09"/><circle class="cls-3" cx="114.89" cy="504.28" r="1.53"/><circle class="cls-3" cx="123.32" cy="488.03" r="1.47"/><circle class="cls-3" cx="120.55" cy="555.46" r="0.97"/><circle class="cls-3" cx="165" cy="648.16" r="0.74"/><circle class="cls-3" cx="123.69" cy="689.86" r="0.88"/><circle class="cls-3" cx="124.79" cy="731.76" r="0.28"/><circle class="cls-3" cx="150.44" cy="755.06" r="0.28"/><circle class="cls-3" cx="129.34" cy="786.25" r="1.16"/><circle class="cls-3" cx="136.86" cy="829.26" r="0.11"/><circle class="cls-3" cx="805.81" cy="79.23" r="0.1"/><circle class="cls-3" cx="798.95" cy="83.9" r="0.22"/><circle class="cls-3" cx="761.62" cy="75.65" r="1.18"/><circle class="cls-3" cx="169.5" cy="288.65" r="1.66"/><circle class="cls-3" cx="189.21" cy="301.95" r="0.14"/><circle class="cls-3" cx="154.8" cy="423.32" r="0.54"/><circle class="cls-4" cx="153.24" cy="471.01" r="1.63"/><circle class="cls-3" cx="145.85" cy="520.8" r="1.22"/><circle class="cls-3" cx="202.49" cy="489.88" r="0.57"/><circle class="cls-3" cx="202.78" cy="495.87" r="0.18"/><circle class="cls-4" cx="216" cy="547.82" r="1.57"/><circle class="cls-3" cx="182.78" cy="669.3" r="1.35"/><circle class="cls-3" cx="164.71" cy="720.86" r="0.63"/><circle class="cls-3" cx="154.66" cy="755.23" r="0.5"/><circle class="cls-3" cx="152.25" cy="828.54" r="1.6"/><circle class="cls-3" cx="155.2" cy="802.47" r="0.89"/><circle class="cls-3" cx="766.2" cy="90.48" r="0.06"/><circle class="cls-3" cx="766.56" cy="90.51" r="0.17"/><circle class="cls-3" cx="219.98" cy="291.94" r="1.64"/><circle class="cls-3" cx="199.62" cy="318.44" r="0.69"/><circle class="cls-3" cx="251.32" cy="374.88" r="0.52"/><circle class="cls-3" cx="216.1" cy="432.34" r="0.23"/><circle class="cls-3" cx="214.68" cy="456.91" r="1.25"/><circle class="cls-3" cx="211.28" cy="473.7" r="0.97"/><circle class="cls-3" cx="233.39" cy="518.43" r="1.09"/><circle class="cls-3" cx="257.61" cy="555.89" r="0.47"/><circle class="cls-3" cx="208.57" cy="710.9" r="1.65"/><circle class="cls-3" cx="188.91" cy="731.28" r="1.01"/><circle class="cls-3" cx="172.5" cy="793.97" r="0.2"/><circle class="cls-3" cx="826.89" cy="116.07" r="0.18"/><circle class="cls-3" cx="812.54" cy="103.19" r="0.17"/><circle class="cls-3" cx="782.03" cy="105.58" r="0.58"/><circle class="cls-3" cx="756.61" cy="99.52" r="1.21"/><circle class="cls-3" cx="222.6" cy="284.32" r="1.44"/><circle class="cls-3" cx="331.45" cy="297.13" r="0.63"/><circle class="cls-4" cx="363.65" cy="352.83" r="1.74"/><circle class="cls-3" cx="257.73" cy="397.48" r="0.7"/><circle class="cls-3" cx="236.19" cy="458.46" r="1.61"/><circle class="cls-3" cx="247.56" cy="488.04" r="1.39"/><circle class="cls-3" cx="253.78" cy="512.22" r="0.33"/><circle class="cls-3" cx="262.02" cy="545.99" r="1.44"/><circle class="cls-3" cx="246.82" cy="631.25" r="0.24"/><circle class="cls-3" cx="201.2" cy="778.39" r="0.37"/><circle class="cls-3" cx="212.32" cy="797.57" r="1.4"/><circle class="cls-3" cx="208.73" cy="816.12" r="1.11"/><circle class="cls-3" cx="803.79" cy="128.44" r="0.08"/><circle class="cls-3" cx="782.9" cy="139.38" r="0.8"/><circle class="cls-4" cx="386.09" cy="257.84" r="1.67"/><circle class="cls-4" cx="390.14" cy="323.59" r="1.08"/><circle class="cls-3" cx="375.57" cy="351.93" r="1.49"/><circle class="cls-3" cx="289.8" cy="436.9" r="0.78"/><circle class="cls-3" cx="298.99" cy="458.18" r="1.39"/><circle class="cls-3" cx="298.7" cy="481.2" r="1.42"/><circle class="cls-3" cx="298.11" cy="512.66" r="0.57"/><circle class="cls-3" cx="301.52" cy="554.87" r="0.75"/><circle class="cls-3" cx="309.08" cy="589.63" r="1.62"/><circle class="cls-3" cx="288.12" cy="629.98" r="0.23"/><circle class="cls-3" cx="330.86" cy="751.78" r="0.08"/><circle class="cls-3" cx="311.7" cy="779.32" r="0.86"/><circle class="cls-3" cx="307.84" cy="797.94" r="0.15"/><circle class="cls-4" cx="808.81" cy="225.73" r="0.76"/><circle class="cls-3" cx="393.33" cy="255.17" r="0.35"/><circle class="cls-3" cx="385.04" cy="288.53" r="0.53"/><circle class="cls-3" cx="328.66" cy="390.96" r="1.33"/><circle class="cls-3" cx="425.58" cy="445.54" r="0.83"/><circle class="cls-3" cx="428.95" cy="444.19" r="0.56"/><circle class="cls-5" cx="326.15" cy="496.23" r="1.53"/><circle class="cls-3" cx="428.42" cy="534.11" r="0.15"/><circle class="cls-3" cx="365.26" cy="546.84" r="0.67"/><circle class="cls-3" cx="358.3" cy="587.68" r="0.79"/><circle class="cls-3" cx="353.96" cy="607.84" r="1.28"/><circle class="cls-4" cx="332.95" cy="659.72" r="1.71"/><circle class="cls-3" cx="350.08" cy="774.96" r="0.21"/><circle class="cls-3" cx="376.58" cy="784.93" r="0.79"/><circle class="cls-5" cx="803.43" cy="240.43" r="1.34"/><circle class="cls-3" cx="789.75" cy="235.22" r="0.17"/><circle class="cls-3" cx="431.22" cy="292.24" r="1.57"/><circle class="cls-3" cx="434.51" cy="319.83" r="0.1"/><circle class="cls-3" cx="417.88" cy="390.53" r="0.29"/><circle class="cls-3" cx="450.65" cy="435" r="0.32"/><circle class="cls-3" cx="433.55" cy="476.1" r="1.69"/><circle class="cls-3" cx="459.16" cy="483" r="1.29"/><circle class="cls-4" cx="453.82" cy="520.8" r="1.73"/><circle class="cls-3" cx="416.75" cy="560.76" r="0.91"/><circle class="cls-3" cx="422.47" cy="604.77" r="0.53"/><circle class="cls-5" cx="423.17" cy="629.73" r="1.59"/><circle class="cls-3" cx="425" cy="677.91" r="0.54"/><circle class="cls-3" cx="384.54" cy="753.56" r="0.8"/><circle class="cls-3" cx="382.45" cy="772.66" r="1.54"/><circle class="cls-3" cx="806.76" cy="276.05" r="0.83"/><circle class="cls-3" cx="764.25" cy="274.91" r="1.01"/><circle class="cls-3" cx="784.56" cy="306.9" r="1.51"/><circle class="cls-3" cx="479.1" cy="291.09" r="1.62"/><circle class="cls-5" cx="460" cy="330.79" r="1.75"/><circle class="cls-3" cx="450.48" cy="405.36" r="1.66"/><circle class="cls-3" cx="475.89" cy="423.95" r="1.34"/><circle class="cls-3" cx="470.82" cy="452.08" r="1.29"/><circle class="cls-3" cx="480.76" cy="506.29" r="1.17"/><circle class="cls-3" cx="482.98" cy="511.97" r="0.23"/><circle class="cls-3" cx="453.54" cy="566.35" r="0.31"/><circle class="cls-3" cx="439.36" cy="598.87" r="1.04"/><circle class="cls-3" cx="480.17" cy="793.96" r="0.11"/><circle class="cls-3" cx="431.92" cy="642.96" r="0.32"/><circle class="cls-4" cx="787.8" cy="396.75" r="1.69"/><circle class="cls-3" cx="772.16" cy="399.69" r="1.07"/><circle class="cls-3" cx="417.42" cy="789.47" r="0.13"/><circle class="cls-3" cx="818.82" cy="333.55" r="0.85"/><circle class="cls-3" cx="790.2" cy="323.98" r="1.4"/><circle class="cls-3" cx="525.33" cy="243.96" r="1.11"/><circle class="cls-3" cx="488.54" cy="329.43" r="1.41"/><circle class="cls-3" cx="496.63" cy="335.52" r="1.01"/><circle class="cls-4" cx="498.67" cy="427.77" r="1.64"/><circle class="cls-3" cx="22.74" cy="647.25" r="1.73"/><circle class="cls-3" cx="161.31" cy="26.18" r="0.47"/><circle class="cls-3" cx="155.55" cy="41.51" r="0.23"/><circle class="cls-3" cx="151.67" cy="51.19" r="1.09"/><circle class="cls-3" cx="146.72" cy="174.07" r="1.53"/><circle class="cls-3" cx="155.15" cy="157.82" r="1.47"/><circle class="cls-5" cx="20.78" cy="621.06" r="1.66"/><circle class="cls-3" cx="195.15" cy="0.29" r="0.14"/><circle class="cls-3" cx="189.28" cy="44.65" r="0.54"/><circle class="cls-3" cx="185.07" cy="140.81" r="1.63"/><circle class="cls-3" cx="24.07" cy="570.57" r="1.64"/><circle class="cls-3" cx="205.56" cy="16.78" r="0.69"/><circle class="cls-3" cx="206.13" cy="39.36" r="0.52"/><circle class="cls-3" cx="202.67" cy="162.66" r="0.23"/><circle class="cls-3" cx="647.1" cy="79.14" r="1.73"/><circle class="cls-3" cx="678.61" cy="95.5" r="0.47"/><circle class="cls-3" cx="685.38" cy="110.41" r="0.23"/><circle class="cls-4" cx="670.93" cy="41.54" r="1.66"/><circle class="cls-3" cx="684.23" cy="53.26" r="0.14"/><circle class="cls-3" cx="711.45" cy="88.78" r="0.54"/><circle class="cls-3" cx="669.27" cy="96.63" r="1.64"/><circle class="cls-3" cx="703.26" cy="57.57" r="0.69"/><circle class="cls-3" cx="719.63" cy="73.12" r="0.52"/><circle class="cls-5" cx="695.37" cy="17.19" r="1.44"/><circle class="cls-4" cx="318.46" cy="17.31" r="1.74"/><circle class="cls-3" cx="234.26" cy="144.06" r="0.7"/><circle class="cls-5" cx="409.87" cy="39.49" r="1.67"/><circle class="cls-3" cx="393.42" cy="70.39" r="1.08"/><circle class="cls-3" cx="330.39" cy="16.41" r="1.49"/><circle class="cls-3" cx="307" cy="166.23" r="0.78"/><circle class="cls-3" cx="417.11" cy="36.82" r="0.35"/><circle class="cls-3" cx="418.87" cy="53.92" r="0.53"/><circle class="cls-3" cx="335.81" cy="136.54" r="1.33"/><circle class="cls-3" cx="394.02" cy="142.2" r="0.83"/><circle class="cls-3" cx="439.73" cy="34.72" r="1.57"/><circle class="cls-3" cx="443.02" cy="62.31" r="0.1"/><circle class="cls-3" cx="436.43" cy="116.75" r="0.29"/><circle class="cls-3" cx="454.86" cy="145.93" r="0.32"/><circle class="cls-5" cx="478.55" cy="57.01" r="1.75"/><circle class="cls-3" cx="469.03" cy="131.59" r="1.66"/><circle class="cls-3" cx="480.1" cy="134.87" r="1.34"/><circle class="cls-3" cx="469.8" cy="167.32" r="1.29"/><circle class="cls-4" cx="18.76" cy="183.01" r="1.41"/><circle class="cls-3" cx="24.85" cy="174.91" r="1.01"/><circle class="cls-3" cx="619.31" cy="51.75" r="1.64"/><circle class="cls-3" cx="765.21" cy="49.5" r="1.73"/><circle class="cls-3" cx="737.42" cy="22.1" r="1.64"/><circle class="cls-3" cx="156.59" cy="194.21" r="0.23"/><circle class="cls-3" cx="152.71" cy="203.89" r="1.09"/><circle class="cls-3" cx="150.42" cy="278.3" r="1.53"/><circle class="cls-3" cx="158.85" cy="262.05" r="1.47"/><circle class="cls-3" cx="190.32" cy="197.35" r="0.54"/><circle class="cls-4" cx="188.76" cy="245.04" r="1.63"/><circle class="cls-3" cx="207.17" cy="192.05" r="0.52"/><circle class="cls-3" cx="206.37" cy="266.89" r="0.23"/><circle class="cls-3" cx="340.08" cy="185.27" r="1.74"/><circle class="cls-3" cx="247.99" cy="232.03" r="0.7"/><circle class="cls-3" cx="352.01" cy="184.38" r="1.49"/><circle class="cls-3" cx="310.69" cy="270.46" r="0.78"/><circle class="cls-3" cx="339.51" cy="240.78" r="1.33"/><circle class="cls-3" cx="397.71" cy="246.43" r="0.83"/><circle class="cls-3" cx="440.13" cy="220.98" r="0.29"/><circle class="cls-3" cx="458.55" cy="250.16" r="0.32"/><circle class="cls-3" cx="472.73" cy="235.82" r="1.66"/><circle class="cls-3" cx="483.8" cy="239.1" r="1.34"/><circle class="cls-3" cx="458.22" cy="292.14" r="1.29"/><circle class="cls-4" cx="521.87" cy="218.06" r="1.64"/><circle class="cls-3" cx="518.01" cy="454.37" r="0.19"/><circle class="cls-3" cx="496.88" cy="503.53" r="0.76"/><circle class="cls-3" cx="497.41" cy="530.6" r="0.04"/><circle class="cls-3" cx="475.76" cy="577.56" r="0.29"/><circle class="cls-4" cx="504.93" cy="763.14" r="1.62"/><circle class="cls-3" cx="672.09" cy="438.52" r="1.67"/><circle class="cls-3" cx="660.42" cy="453.65" r="1.08"/><circle class="cls-3" cx="679.33" cy="435.86" r="0.35"/><circle class="cls-3" cx="671.04" cy="469.21" r="0.53"/><circle class="cls-3" cx="685.1" cy="706.45" r="0.83"/><circle class="cls-3" cx="719.57" cy="787.53" r="0.56"/><circle class="cls-3" cx="801.7" cy="658.21" r="0.15"/><circle class="cls-3" cx="788.33" cy="658.64" r="0.67"/><circle class="cls-3" cx="701.95" cy="433.76" r="1.57"/><circle class="cls-3" cx="705.24" cy="461.34" r="0.1"/><circle class="cls-3" cx="691" cy="550.21" r="0.29"/><circle class="cls-3" cx="709.42" cy="579.39" r="0.32"/><circle class="cls-3" cx="737.56" cy="806.05" r="1.69"/><circle class="cls-3" cx="763.16" cy="812.95" r="1.29"/><circle class="cls-4" cx="815.01" cy="683.61" r="1.73"/><circle class="cls-3" cx="778.4" cy="662.32" r="0.91"/><circle class="cls-3" cx="700.2" cy="514.13" r="1.75"/><circle class="cls-3" cx="723.6" cy="565.05" r="1.66"/><circle class="cls-3" cx="734.67" cy="568.33" r="1.34"/><circle class="cls-3" cx="774.82" cy="782.03" r="1.29"/><circle class="cls-3" cx="829.52" cy="710.55" r="1.17"/><circle class="cls-3" cx="823.84" cy="712.78" r="0.23"/><circle class="cls-3" cx="786.2" cy="712.51" r="0.31"/><circle class="cls-3" cx="734.54" cy="498.56" r="1.11"/><circle class="cls-3" cx="701.15" cy="535.71" r="1.41"/><circle class="cls-3" cx="701.12" cy="545.84" r="1.01"/><circle class="cls-3" cx="742.2" cy="288.33" r="1.64"/><circle class="cls-3" cx="708.49" cy="397.07" r="0.83"/><circle class="cls-3" cx="695.64" cy="370.26" r="0.32"/><circle class="cls-4" cx="738.65" cy="448.92" r="1.66"/><circle class="cls-3" cx="742.65" cy="459.75" r="1.34"/><circle class="cls-3" cx="710.49" cy="470.93" r="1.29"/><circle class="cls-3" cx="742.76" cy="232.8" r="1.64"/><circle class="cls-3" cx="734.79" cy="357.51" r="0.19"/><circle class="cls-3" cx="728.49" cy="374.63" r="0.76"/><circle class="cls-3" cx="745.61" cy="394.4" r="0.04"/><circle class="cls-3" cx="728.35" cy="454.67" r="0.29"/><circle class="cls-3" cx="502.73" cy="799.54" r="0.1"/><circle class="cls-3" cx="819.75" cy="419.68" r="0.48"/><circle class="cls-3" cx="802.67" cy="422.01" r="1.06"/><circle class="cls-3" cx="809.98" cy="455" r="0.64"/><circle class="cls-3" cx="601.01" cy="265.83" r="1.67"/><circle class="cls-3" cx="624.91" cy="247.46" r="0.35"/><circle class="cls-3" cx="529.85" cy="445.34" r="0.83"/><circle class="cls-3" cx="535.08" cy="552.07" r="0.15"/><circle class="cls-3" cx="535.51" cy="565.44" r="0.67"/><circle class="cls-3" cx="577.67" cy="730.44" r="0.79"/><circle class="cls-3" cx="800.59" cy="505.92" r="0.79"/><circle class="cls-3" cx="638.44" cy="257.32" r="1.57"/><circle class="cls-3" cx="607.38" cy="307.3" r="0.1"/><circle class="cls-3" cx="593.15" cy="372.26" r="0.29"/><circle class="cls-3" cx="544.88" cy="451.06" r="0.32"/><circle class="cls-3" cx="537.83" cy="475.89" r="1.69"/><circle class="cls-5" cx="563.43" cy="482.8" r="1.29"/><circle class="cls-3" cx="560.48" cy="538.77" r="1.73"/><circle class="cls-3" cx="539.19" cy="575.38" r="0.91"/><circle class="cls-3" cx="607.43" cy="730.15" r="0.53"/><circle class="cls-5" cx="608.13" cy="755.11" r="1.59"/><circle class="cls-3" cx="609.96" cy="803.29" r="0.54"/><circle class="cls-3" cx="588.09" cy="833.79" r="0.8"/><circle class="cls-4" cx="812.86" cy="511.79" r="1.54"/><circle class="cls-3" cx="679.63" cy="293.94" r="1.62"/><circle class="cls-4" cx="597.49" cy="350.29" r="1.75"/><circle class="cls-3" cx="642.26" cy="398.04" r="1.66"/><circle class="cls-3" cx="628.55" cy="431.37" r="1.34"/><circle class="cls-3" cx="575.09" cy="451.87" r="1.29"/><circle class="cls-3" cx="630.58" cy="536.21" r="1.17"/><circle class="cls-3" cx="632.8" cy="541.89" r="0.23"/><circle class="cls-3" cx="632.53" cy="579.53" r="0.31"/><circle class="cls-3" cx="624.32" cy="724.25" r="1.04"/><circle class="cls-3" cx="634.59" cy="750.04" r="0.11"/><circle class="cls-3" cx="616.88" cy="768.34" r="0.32"/><circle class="cls-3" cx="627.37" cy="833.38" r="1.69"/><circle class="cls-3" cx="816.74" cy="556.1" r="1.07"/><circle class="cls-3" cx="796.06" cy="546.76" r="0.13"/><circle class="cls-3" cx="727.33" cy="221.01" r="1.11"/><circle class="cls-3" cx="689.07" cy="332.28" r="1.41"/><circle class="cls-3" cx="689.51" cy="348.89" r="1.01"/><circle class="cls-3" cx="651.85" cy="347.42" r="1.64"/><circle class="cls-3" cx="629.29" cy="238.72" r="0.83"/><circle class="cls-3" cx="642.12" cy="190.38" r="0.29"/><circle class="cls-3" cx="650.5" cy="235.82" r="0.32"/><circle class="cls-3" cx="635.03" cy="303.24" r="1.66"/><circle class="cls-3" cx="729.85" cy="111.32" r="1.34"/><circle class="cls-3" cx="658.75" cy="294.99" r="1.29"/><circle class="cls-3" cx="700.43" cy="221.41" r="1.64"/><circle class="cls-3" cx="665.44" cy="466.12" r="0.19"/><circle class="cls-3" cx="646.7" cy="533.45" r="0.76"/><circle class="cls-3" cx="647.23" cy="560.52" r="0.04"/><circle class="cls-3" cx="654.74" cy="590.74" r="0.29"/><circle class="cls-4" cx="659.35" cy="719.23" r="1.62"/><circle class="cls-3" cx="657.15" cy="755.62" r="0.1"/><circle class="cls-3" cx="650.3" cy="801.44" r="0.48"/><circle class="cls-3" cx="652.63" cy="818.51" r="1.06"/><circle class="cls-3" cx="796.46" cy="582.43" r="0.99"/><path class="cls-6" d="M169,626h0a.21.21,0,0,1-.28-.28h0a4.74,4.74,0,0,0,0-3.87h0a.21.21,0,0,1,.28-.28h0a4.64,4.64,0,0,0,3.86,0h0a.22.22,0,0,1,.29.28h0a4.67,4.67,0,0,0,0,3.87h0a.22.22,0,0,1-.29.28h0A4.64,4.64,0,0,0,169,626Z"/><path class="cls-7" d="M130.47,236.27h0a.21.21,0,0,1-.28-.28h0a4.67,4.67,0,0,0,0-3.87h0a.21.21,0,0,1,.28-.28h0a4.74,4.74,0,0,0,3.87,0h0a.21.21,0,0,1,.28.28h0a4.74,4.74,0,0,0,0,3.87h0a.21.21,0,0,1-.28.28h0A4.67,4.67,0,0,0,130.47,236.27Z"/><path class="cls-6" d="M522.31,494.34h0a.21.21,0,0,1-.29-.28h0a4.64,4.64,0,0,0,0-3.86h0a.22.22,0,0,1,.29-.29h0a4.64,4.64,0,0,0,3.86,0h0a.21.21,0,0,1,.28.29h0a4.72,4.72,0,0,0,0,3.86h0a.21.21,0,0,1-.28.28h0A4.72,4.72,0,0,0,522.31,494.34Z"/><path class="cls-7" d="M548.48,315.78h0a.22.22,0,0,1-.29-.29h0a4.64,4.64,0,0,0,0-3.86h0a.21.21,0,0,1,.29-.28h0a4.72,4.72,0,0,0,3.86,0h0a.21.21,0,0,1,.28.28h0a4.72,4.72,0,0,0,0,3.86h0a.21.21,0,0,1-.28.29h0A4.64,4.64,0,0,0,548.48,315.78Z"/><path class="cls-6" d="M504.6,135.67h0a.21.21,0,0,1-.28-.28h0a4.67,4.67,0,0,0,0-3.87h0a.21.21,0,0,1,.28-.28h0a4.74,4.74,0,0,0,3.87,0h0a.21.21,0,0,1,.28.28h0a4.74,4.74,0,0,0,0,3.87h0a.21.21,0,0,1-.28.28h0A4.67,4.67,0,0,0,504.6,135.67Z"/><path class="cls-6" d="M699,293.84h0a.21.21,0,0,1-.28-.28h0a4.74,4.74,0,0,0,0-3.87h0a.21.21,0,0,1,.28-.28h0a4.67,4.67,0,0,0,3.87,0h0a.21.21,0,0,1,.28.28h0a4.67,4.67,0,0,0,0,3.87h0a.21.21,0,0,1-.28.28h0A4.67,4.67,0,0,0,699,293.84Z"/><path class="cls-6" d="M77.81,573.24h0a.22.22,0,0,1-.28-.29h0a4.72,4.72,0,0,0,0-3.86h0a.21.21,0,0,1,.28-.28h0a4.74,4.74,0,0,0,3.87,0h0a.21.21,0,0,1,.28.28h0A4.64,4.64,0,0,0,82,573h0a.22.22,0,0,1-.28.29h0A4.67,4.67,0,0,0,77.81,573.24Z"/><path class="cls-6" d="M275.62,795.68h0a.22.22,0,0,1-.28-.29h0a4.72,4.72,0,0,0,0-3.86h0a.21.21,0,0,1,.28-.28h0a4.74,4.74,0,0,0,3.87,0h0a.21.21,0,0,1,.28.28h0a4.64,4.64,0,0,0,0,3.86h0a.22.22,0,0,1-.28.29h0A4.67,4.67,0,0,0,275.62,795.68Z"/><path class="cls-6" d="M196,738.34h0a.21.21,0,0,1-.28-.29h0a4.72,4.72,0,0,0,0-3.86h0a.21.21,0,0,1,.28-.29h0a4.64,4.64,0,0,0,3.86,0h0a.22.22,0,0,1,.29.29h0a4.64,4.64,0,0,0,0,3.86h0a.22.22,0,0,1-.29.29h0A4.64,4.64,0,0,0,196,738.34Z"/><path class="cls-6" d="M128.42,826.18h0a.21.21,0,0,1-.28-.28h0a4.72,4.72,0,0,0,0-3.86h0a.22.22,0,0,1,.28-.29h0a4.67,4.67,0,0,0,3.87,0h0a.22.22,0,0,1,.28.29h0a4.64,4.64,0,0,0,0,3.86h0a.21.21,0,0,1-.28.28h0A4.74,4.74,0,0,0,128.42,826.18Z"/><path class="cls-6" d="M510.76,572.08h0a.21.21,0,0,1-.28-.28h0a4.74,4.74,0,0,0,0-3.87h0a.21.21,0,0,1,.28-.28h0a4.67,4.67,0,0,0,3.87,0h0a.21.21,0,0,1,.28.28h0a4.67,4.67,0,0,0,0,3.87h0a.21.21,0,0,1-.28.28h0A4.74,4.74,0,0,0,510.76,572.08Z"/><path class="cls-7" d="M252.92,552.07h0a.22.22,0,0,1-.29-.28h0a4.67,4.67,0,0,0,0-3.87h0a.22.22,0,0,1,.29-.28h0a4.64,4.64,0,0,0,3.86,0h0a.21.21,0,0,1,.28.28h0a4.74,4.74,0,0,0,0,3.87h0a.21.21,0,0,1-.28.28h0A4.64,4.64,0,0,0,252.92,552.07Z"/><path class="cls-7" d="M712,439.31h0a.22.22,0,0,1-.29-.28h0a4.67,4.67,0,0,0,0-3.87h0a.22.22,0,0,1,.29-.28h0a4.64,4.64,0,0,0,3.86,0h0a.21.21,0,0,1,.28.28h0a4.74,4.74,0,0,0,0,3.87h0a.21.21,0,0,1-.28.28h0A4.72,4.72,0,0,0,712,439.31Z"/><path class="cls-6" d="M377.22,661h0a.21.21,0,0,1-.28-.28h0a4.74,4.74,0,0,0,0-3.87h0a.21.21,0,0,1,.28-.28h0a4.67,4.67,0,0,0,3.87,0h0a.21.21,0,0,1,.28.28h0a4.67,4.67,0,0,0,0,3.87h0a.21.21,0,0,1-.28.28h0A4.74,4.74,0,0,0,377.22,661Z"/><path class="cls-6" d="M532.7,673.3h0a.22.22,0,0,1-.29-.29h0a4.64,4.64,0,0,0,0-3.86h0a.21.21,0,0,1,.29-.28h0a4.72,4.72,0,0,0,3.86,0h0a.21.21,0,0,1,.29.28h0a4.64,4.64,0,0,0,0,3.86h0a.22.22,0,0,1-.29.29h0A4.64,4.64,0,0,0,532.7,673.3Z"/><path class="cls-6" d="M256,381.2h0a.22.22,0,0,1-.29-.28h0a4.67,4.67,0,0,0,0-3.87h0a.22.22,0,0,1,.29-.28h0a4.72,4.72,0,0,0,3.86,0h0a.21.21,0,0,1,.28.28h0a4.74,4.74,0,0,0,0,3.87h0a.21.21,0,0,1-.28.28h0A4.64,4.64,0,0,0,256,381.2Z"/><path class="cls-6" d="M431.48,398.9h0a.21.21,0,0,1-.28-.28h0a4.67,4.67,0,0,0,0-3.87h0a.21.21,0,0,1,.28-.28h0a4.67,4.67,0,0,0,3.87,0h0a.21.21,0,0,1,.28.28h0a4.74,4.74,0,0,0,0,3.87h0a.21.21,0,0,1-.28.28h0A4.74,4.74,0,0,0,431.48,398.9Z"/></g></g></g></g></svg>