<svg xmlns="http://www.w3.org/2000/svg" viewBox="0 0 484.15 839.48"><defs><style>.cls-1{fill:#10002b;}.cls-2{fill:#fa7900;}.cls-3{fill:#f06800;}.cls-4{fill:#fff;}</style></defs><g id="Ebene_2" data-name="Ebene 2"><g id="Assets"><g id="Duck_neutral"><path id="Head" class="cls-1" d="M158.89,25.4A218.61,218.61,0,0,1,261.67,0h0C383,.09,481.2,98.48,481.11,219.77L480,770.62A69,69,0,0,1,411,839.48l-301.07-.23A69,69,0,0,1,40.93,770l.69-174.44.28-376.1A219.59,219.59,0,0,1,158.89,25.4Z"/><g id="Beak"><rect class="cls-2" y="221.62" width="232.48" height="170.24" rx="85.12" transform="translate(232.26 613.57) rotate(-179.96)"/><path class="cls-3" d="M232.44,299.8c.22,2.7.32,5.42.28,8.17a85.12,85.12,0,0,1-86.23,84l-62.24-.81a84.9,84.9,0,0,1-26.19-4.48,84.48,84.48,0,0,1-9.73-33c-.22-2.69-.32-5.42-.28-8.17a85.14,85.14,0,0,1,86.22-84l62.25.82a85.24,85.24,0,0,1,26.19,4.47A84.53,84.53,0,0,1,232.44,299.8Z"/></g><ellipse id="Eye" class="cls-4" cx="378.24" cy="268.73" rx="105.91" ry="123.05"/></g></g></g></svg>