<svg xmlns="http://www.w3.org/2000/svg" viewBox="0 0 511.76 834.83"><defs><style>.cls-1{fill:#10002b;}.cls-2{fill:#fa7900;}.cls-3{fill:#f06800;}.cls-4{fill:#fff;}</style></defs><g id="Ebene_2" data-name="Ebene 2"><g id="Assets"><g id="Duck_smiling"><path class="cls-1" d="M511.76,218.55l-.1,52.91-.41,198.72L510.65,766a69,69,0,0,1-69,68.86L143,834.61A69,69,0,0,1,74,765.33l.69-173.09.27-374a218.4,218.4,0,0,1,436.79.32Z"/><g id="Beak"><rect class="cls-2" y="220.39" width="231.19" height="169.3" rx="84.65" transform="translate(230.97 610.17) rotate(-179.96)"/><path class="cls-3" d="M231.15,298.14c.22,2.68.32,5.39.28,8.13a84.65,84.65,0,0,1-85.75,83.52L83.78,389a84.33,84.33,0,0,1-26-4.46,83.86,83.86,0,0,1-9.68-32.83c-.22-2.68-.32-5.39-.28-8.13A84.65,84.65,0,0,1,133.53,260l61.9.81a84.22,84.22,0,0,1,26,4.44A83.89,83.89,0,0,1,231.15,298.14Z"/></g><ellipse id="Eye" class="cls-4" cx="388.95" cy="267.24" rx="105.33" ry="122.37"/><path class="cls-1" d="M511.66,271.46l-.41,198.72a105.47,105.47,0,1,1,.41-198.72Z"/></g></g></g></svg>