<svg xmlns="http://www.w3.org/2000/svg" xmlns:xlink="http://www.w3.org/1999/xlink" viewBox="0 0 739.79 833.57"><defs><style>.cls-1{isolation:isolate;}.cls-10,.cls-14,.cls-2,.cls-6,.cls-7{fill:none;}.cls-2,.cls-8{stroke:#4e30c2;}.cls-10,.cls-14,.cls-2,.cls-6,.cls-7,.cls-8,.cls-9{stroke-linecap:round;}.cls-10,.cls-2,.cls-6,.cls-7,.cls-8,.cls-9{stroke-linejoin:round;}.cls-2,.cls-6,.cls-7,.cls-8,.cls-9{stroke-width:32.23px;}.cls-3{fill:#d4cafb;}.cls-4{fill:#b19ff9;}.cls-5,.cls-9{fill:#a995f9;}.cls-6,.cls-9{stroke:#7053e3;}.cls-7{stroke:#5b3ade;}.cls-8{fill:#9179f5;}.cls-10,.cls-14{stroke:#8f73ff;}.cls-10{stroke-width:32.23px;}.cls-11{fill:#7053e3;}.cls-12{fill:#130d34;opacity:0.5;mix-blend-mode:soft-light;}.cls-13{fill:#fff;opacity:0.2;mix-blend-mode:overlay;}.cls-14{stroke-miterlimit:10;stroke-width:32.23px;}.cls-15{fill:url(#Unbenannter_Verlauf_17);}</style><linearGradient id="Unbenannter_Verlauf_17" x1="454.45" y1="179.01" x2="350.92" y2="266.19" gradientUnits="userSpaceOnUse"><stop offset="0" stop-color="#5200cc"/><stop offset="1" stop-color="#300096"/></linearGradient></defs><g class="cls-1"><g id="Ebene_2" data-name="Ebene 2"><g id="Assets"><g id="Space_Ship" data-name="Space Ship"><g id="Bottom_Part" data-name="Bottom Part"><g id="Bottom_Strings_back" data-name="Bottom Strings back"><path class="cls-2" d="M186.36,787.62c0-16.17,82.17-29.27,183.54-29.27s183.53,13.1,183.53,29.27"/><path class="cls-2" d="M186.36,715c0-16.17,82.17-29.28,183.54-29.28S553.43,698.79,553.43,715"/></g><g id="Bottom"><g id="Bottom-2" data-name="Bottom"><path class="cls-3" d="M538.86,788.18c0,11.27-36.79,21.06-90.72,26-23.39,2.12-50,3.32-78.25,3.32-93.31,0-169-13.1-169-29.27a5.58,5.58,0,0,1,.62-2.52c7.39-15,79.94-26.76,168.34-26.76,28.25,0,54.86,1.2,78.25,3.32,53.16,4.83,89.68,14.41,90.69,25.48A3.87,3.87,0,0,1,538.86,788.18Z"/><rect class="cls-3" x="201.55" y="618.14" width="337.28" height="170.24"/><path class="cls-4" d="M365.33,588.39l112.5,229.05c-91.2-.41-276.9-13.36-276.9-29.26a5.58,5.58,0,0,1,.62-2.52V620.17a5.58,5.58,0,0,1-.62-2.52C200.93,601.76,274.12,588.8,365.33,588.39Z"/><path class="cls-5" d="M538.86,617.65a4,4,0,0,1,0,.49c-1,11.07-37.54,20.66-90.69,25.47-23.39,2.12-50,3.32-78.25,3.32-88.4,0-160.95-11.76-168.34-26.76a5.58,5.58,0,0,1-.62-2.52c0-16.16,75.65-29.27,169-29.27,56.78,0,107,4.86,137.64,12.3C527.25,605.46,538.86,611.32,538.86,617.65Z"/></g><path id="Bottom_Frame" data-name="Bottom Frame" class="cls-6" d="M538.84,618.14h0a3.88,3.88,0,0,0,0-.48c0-16.17-75.65-29.28-169-29.28s-169,13.11-169,29.28a5.63,5.63,0,0,0,.61,2.48V785.69a5.64,5.64,0,0,0-.61,2.49c0,16.17,75.64,29.27,169,29.27s169-13.1,169-29.27c0-.08,0-.16,0-.24Z"/><line id="Bottom_Frame-2" data-name="Bottom Frame" class="cls-2" x1="201.55" y1="620.14" x2="201.55" y2="785.69"/></g><g id="Bottom_Strings_front" data-name="Bottom Strings front"><path class="cls-6" d="M553.43,715c0,16.16-82.17,29.27-183.53,29.27S186.36,731.12,186.36,715"/><path class="cls-7" d="M324.8,743.34c-79.56-3.21-138.44-14.7-138.44-28.38"/><path class="cls-6" d="M553.43,787.62c0,16.17-82.17,29.28-183.53,29.28s-183.54-13.11-183.54-29.28"/><path class="cls-7" d="M278.13,813c-54.86-5.06-91.77-14.52-91.77-25.36"/></g></g><g id="Wings_Side" data-name="Wings Side"><polygon id="Wing_left" data-name="Wing left" class="cls-8" points="16.72 628.08 176.87 628.08 176.87 400.34 121.46 400.34 16.11 514.21 16.72 628.08"/><polygon id="Wing_right" data-name="Wing right" class="cls-9" points="723.07 628.08 562.92 628.08 562.92 400.34 618.34 400.34 723.68 514.21 723.07 628.08"/><polyline id="Wing_right-2" data-name="Wing right" class="cls-10" points="706.8 495.96 723.68 514.21 723.34 577.33"/></g><g id="Middle_Part" data-name="Middle Part"><g id="Middle"><g id="Body"><ellipse class="cls-5" cx="369.9" cy="644.76" rx="194.94" ry="33.78"/><polygon class="cls-5" points="680.75 442.1 564.84 644.76 174.96 644.76 59.04 442.1 680.75 442.1"/><ellipse class="cls-11" cx="369.9" cy="442.1" rx="310.85" ry="53.86"/></g><path class="cls-12" d="M361.63,678.5C257.8,677.75,175,663,175,644.76l-109.81-192c-4-3.45-6.1-7-6.1-10.66,0-18.92,56.34-35.56,141.55-45.17Z"/><path id="Light" class="cls-13" d="M564.83,644.76l109.83-192c4-3.45,6.09-7,6.09-10.66,0-14.38-73.62-11.33-126.63-21l-18,241.34S557.52,656.2,564.83,644.76Z"/></g><path id="Miiddle_Frame" data-name="Miiddle Frame" class="cls-6" d="M175,644.76c0,18.66,87.28,33.78,195,33.78s194.94-15.12,194.94-33.78l109.81-192c4-3.45,6.1-7,6.1-10.66,0-29.74-139.18-53.86-310.85-53.86S59,412.36,59,442.1c0,3.65,2.11,7.21,6.1,10.66Z"/><path id="Miiddle_Frame-2" data-name="Miiddle Frame" class="cls-2" d="M65.14,452.76,175,644.76c0,18.66,87.28,33.78,195,33.78"/><line id="Miiddle_Frame-3" data-name="Miiddle Frame" class="cls-14" x1="603.41" y1="577.33" x2="674.65" y2="452.76"/></g><g id="Top_Part" data-name="Top Part"><g id="Top"><g id="Top-2" data-name="Top"><ellipse class="cls-3" cx="369.9" cy="442.21" rx="310.85" ry="53.86"/><path class="cls-3" d="M680.75,442.48H59c0-153,77.54-294.11,203-369.66l82.35-49.57a49,49,0,0,1,50.95,0l82.35,49.57C603.22,148.37,680.75,289.53,680.75,442.48Z"/></g><path id="Shadow" class="cls-4" d="M278.86,496.08c-58.73-.57-200.79-4.29-219.8-53.6h0a2.62,2.62,0,0,1,0-.29v0c.36-113.26,41.65-219.63,117.82-300.64C175.89,144,41.38,441.14,278.86,496.08Z"/><path id="Light-2" data-name="Light" class="cls-13" d="M680.75,442.19v.29h0c-.49,18-52,33.92-130.63,43.63l-1.2-.25S553.56,270.22,390,82.17c-24.62-28.3-19.76-66.06-19.76-66.06a49.35,49.35,0,0,1,25.18,7.14l82.35,49.57C603.14,148.32,680.64,289.35,680.75,442.19Z"/><path id="Top_Frame" data-name="Top Frame" class="cls-6" d="M680.75,442.21v0c-.11-152.84-77.62-293.86-203-369.36L395.37,23.25a49.06,49.06,0,0,0-50.95,0L262.07,72.82c-125.41,75.5-202.92,216.52-203,369.36v.06c0,.08,0,.16,0,.24h0c.84,29.62,139.68,53.59,310.84,53.59s310-24,310.83-53.59h0v-.27Z"/></g><path id="Top_Frame-2" data-name="Top Frame" class="cls-7" d="M154.07,167.73c-60.35,75.54-95,172.36-95,274.45v.06c0,.08,0,.16,0,.24h0c.52,18.12,52.62,34.11,132.16,43.81"/><g id="Reflection"><path class="cls-14" d="M654.66,292.06a446,446,0,0,1,23.92,107.67"/><path class="cls-14" d="M477.58,72.82c59.28,35.68,107.86,86,142.62,145.31"/></g></g><path id="Wing_middle" data-name="Wing middle" class="cls-9" d="M389.93,483.16l0-.34h0L383.83,412a13.35,13.35,0,0,0-13.3-12.22h-1.27A13.35,13.35,0,0,0,356,412l-6.07,70.87h-.05l0,.34,0,.33h.05l6.47,131.28a13.36,13.36,0,0,0,13.34,12.7H370a13.37,13.37,0,0,0,13.41-12.69c1.72-35.17,6.48-131.29,6.48-131.29h0Z"/><g id="Window"><polygon id="Window-2" data-name="Window" class="cls-15" points="463.97 310.22 275.82 310.22 302.49 167.73 437.3 167.73 463.97 310.22"/><polygon id="Window_Frame" data-name="Window Frame" class="cls-6" points="463.97 310.22 275.82 310.22 302.49 167.73 437.3 167.73 463.97 310.22"/><polyline id="Window_Frame-2" data-name="Window Frame" class="cls-10" points="383.09 167.73 437.3 167.73 444.45 205.95"/><polyline id="Window_Frame-3" data-name="Window Frame" class="cls-2" points="349.84 310.22 275.82 310.22 290.97 229.3"/></g></g></g></g></g></svg>