<svg xmlns="http://www.w3.org/2000/svg" viewBox="0 0 833.52 833.52"><defs><style>.cls-1{isolation:isolate;}.cls-2{fill:#d4cafb;}.cls-3{fill:#300096;opacity:0.5;mix-blend-mode:soft-light;}.cls-11,.cls-12,.cls-16,.cls-4,.cls-9{fill:none;}.cls-11,.cls-13,.cls-4,.cls-5{stroke:#7053e3;}.cls-12,.cls-16,.cls-4,.cls-5,.cls-9{stroke-linecap:round;}.cls-16,.cls-4,.cls-5{stroke-linejoin:round;}.cls-12,.cls-4,.cls-5,.cls-9{stroke-width:36.69px;}.cls-13,.cls-5{fill:#baabf9;}.cls-6{fill:#a995f9;}.cls-7{opacity:0.3;}.cls-10,.cls-7{mix-blend-mode:overlay;}.cls-8{fill:#d1c7fb;}.cls-9{stroke:#d1c7fb;}.cls-11,.cls-12,.cls-13,.cls-9{stroke-miterlimit:10;}.cls-10{fill:#fff;opacity:0.1;}.cls-11,.cls-13,.cls-16{stroke-width:36.69px;}.cls-12{stroke:#8f73ff;}.cls-14{fill:#2e1a8c;}.cls-15{fill:#16094a;}.cls-16{stroke:#4e30c2;}</style></defs><g class="cls-1"><g id="Ebene_2" data-name="Ebene 2"><g id="Assets"><g id="Space_Ship_Back" data-name="Space Ship Back"><g id="Cockpit"><path class="cls-2" d="M608,136.21l17.35,17.35L153.51,625.34,136.16,608C43.32,515.15,18.66,362.5,68.09,186.62l26-92.48.08,0,92.4-26C362.45,18.7,515.1,43.36,608,136.21Z"/><path class="cls-3" d="M136.21,607.94l17.35,17.35L389.4,389.45C382.87,167.53,94.12,94.16,94.12,94.16l-26,92.41C18.71,362.44,43.37,515.1,136.21,607.94Z"/><path class="cls-4" d="M608,136.21l17.35,17.35L153.51,625.34,136.16,608C43.32,515.15,18.66,362.5,68.09,186.62l26-92.48.08,0,92.4-26C362.45,18.7,515.1,43.36,608,136.21Z"/></g><polyline id="Wing_right" data-name="Wing right" class="cls-5" points="178.53 518.33 84.98 727.76 102.59 815.18 288.65 629.12"/><polyline id="Wing_right-2" data-name="Wing right" class="cls-5" points="518.33 178.53 727.76 84.98 815.18 102.59 629.98 287.79"/><path class="cls-5" d="M200,157.05l-43,43L23.65,52.64a20.53,20.53,0,0,1,.7-28.29h0a20.53,20.53,0,0,1,28.29-.7Z"/><path class="cls-5" d="M650.26,607.31l-43,43L754.68,783.67A20.51,20.51,0,0,0,783,783h0a20.51,20.51,0,0,0,.71-28.28Z"/><circle id="Body_surface" data-name="Body surface" class="cls-6" cx="405.2" cy="405.2" r="335.19"/><g id="Reflections"><g class="cls-7"><path class="cls-8" d="M149.5,423.67l175.62,1.21c12,.08,13.55,17.37,1.8,19.62L154.45,477.58a9.91,9.91,0,0,1-11.65-8.21q-.48-3.11-.89-6.22a288.76,288.76,0,0,1-2.38-29.27A9.9,9.9,0,0,1,149.5,423.67Z"/><path class="cls-8" d="M167.58,524l233.48-89.09a9.9,9.9,0,0,1,12.29,13.86L296.88,669.84a9.9,9.9,0,0,1-13.7,4A286.5,286.5,0,0,1,162,537.15,9.91,9.91,0,0,1,167.58,524Z"/><path class="cls-8" d="M499.86,149.16a287.23,287.23,0,0,1,142.67,89.78,9.93,9.93,0,0,1-1.29,14.24L447.79,407.82A9.9,9.9,0,0,1,432,397.87l55.62-241.39A9.93,9.93,0,0,1,499.86,149.16Z"/><path class="cls-8" d="M344.76,161.55l76,248.2a9.9,9.9,0,0,1-11.39,12.61L154.69,371.89A9.88,9.88,0,0,1,147,360l0-.1c22.25-94.27,91.63-172.58,185-204.76A9.93,9.93,0,0,1,344.76,161.55Z"/></g><path class="cls-9" d="M446.5,201.18a250.45,250.45,0,0,1,137.32,40.73"/><path class="cls-9" d="M284.28,260.43A250.89,250.89,0,0,1,384,209"/><path class="cls-9" d="M302.47,659.24a251.38,251.38,0,0,1-107.63-206.4"/><path class="cls-10" d="M372,290a333.94,333.94,0,0,1-200.95-131C248.52,87,358.74,52.72,470,76.62a334,334,0,0,1,201,131C593.5,279.63,483.29,313.94,372,290Z"/></g><g id="Body_frame" data-name="Body frame"><circle id="frame" class="cls-11" cx="405.2" cy="405.2" r="335.19"/><path id="reflection" class="cls-12" d="M168.27,168C246.11,90.42,360.5,52.63,476,77.56a334.08,334.08,0,0,1,211,146"/></g><g id="Antrieb"><circle id="Antrieb_front" data-name="Antrieb front" class="cls-13" cx="471.1" cy="471.14" r="200.93"/><g id="Antrieb_back" data-name="Antrieb back"><path id="Antrieb_surface" data-name="Antrieb surface" class="cls-14" d="M761.29,529.88c0,127.82-103.63,231.46-231.46,231.45-109.27,0-200.87-75.73-225.15-177.56a231.77,231.77,0,0,1-6.31-53.9A234.23,234.23,0,0,1,300,502.33a230.37,230.37,0,0,1,22.53-75.53A231,231,0,0,1,502.38,300h0a233.08,233.08,0,0,1,81.3,4.69C685.55,329,761.29,420.6,761.29,529.88Z"/><path id="Antrieb_surface-2" data-name="Antrieb surface" class="cls-15" d="M611.59,467.87C607.21,638.78,370.88,664.81,328,501.34a145.18,145.18,0,0,1,1.09-71.22c14.57-55.57,64.54-98.8,121.71-105h0C533.87,314.23,612.41,381.69,611.59,467.87Z"/><g id="Antrieb_Frame" data-name="Antrieb Frame"><path id="frame-2" data-name="frame" class="cls-11" d="M529.83,298.41a230.75,230.75,0,0,1,163.67,67.8c90.39,90.39,90.39,236.94,0,327.33s-236.95,90.4-327.34,0-90.39-236.94,0-327.33a230.71,230.71,0,0,1,163.67-67.8"/><path id="frame-3" data-name="frame" class="cls-16" d="M693.5,693.54c-90.39,90.4-236.95,90.4-327.34,0"/><path id="frame-4" data-name="frame" class="cls-12" d="M595.93,308a231.35,231.35,0,0,1,97.57,58.22"/><path id="frame-5" data-name="frame" class="cls-12" d="M366.16,366.21a230.73,230.73,0,0,1,163.67-67.8"/></g></g></g></g></g></g></g></svg>